<svg xmlns="http://www.w3.org/2000/svg" viewBox="0 0 218.6 35.21"><title>Fichier 1</title><g id="1e8180dd-912f-47e0-95ce-f3328395bff5" data-name="Calque 2"><g id="4e2e33ec-3441-4398-b67f-b5c491d433c3" data-name="Calque 1"><path d="M18.3,5.71a6.67,6.67,0,0,0-2.93-3.27,7.25,7.25,0,0,0-4.31-.82A8.12,8.12,0,0,0,6.83,3.37a13.39,13.39,0,0,0-4.6,6.54,15.36,15.36,0,0,0-.32,8.26,10.63,10.63,0,0,0,3.46,6.15A8.45,8.45,0,0,0,11,26.5a7.36,7.36,0,0,0,5.32-2.36A10.47,10.47,0,0,0,19,17.38a.8.8,0,0,1,.27-.51.67.67,0,0,1,.56-.17.8.8,0,0,1,.53.27.73.73,0,0,1,.18.58,11.68,11.68,0,0,1-3.1,7.63A9,9,0,0,1,11,28a10,10,0,0,1-6.64-2.5,12.45,12.45,0,0,1-3.94-7A17.25,17.25,0,0,1,.84,9.39a15.08,15.08,0,0,1,5-7.28,9.57,9.57,0,0,1,4.92-2A8.71,8.71,0,0,1,16,1a7.85,7.85,0,0,1,3.61,4.05.62.62,0,0,1,0,.59.79.79,0,0,1-.42.42.58.58,0,0,1-.57,0A.75.75,0,0,1,18.3,5.71Z" style="fill:#363636"/><path d="M37.08,19.12h0L23.83,19a7.51,7.51,0,0,0,1.39,4.9,6.18,6.18,0,0,0,3.7,2.33,6.59,6.59,0,0,0,4.5-.69,7.25,7.25,0,0,0,3.28-3.69.71.71,0,0,1,.4-.4.6.6,0,0,1,.58,0,.77.77,0,0,1,.42.41.64.64,0,0,1,0,.6,8.29,8.29,0,0,1-4,4.46,8.12,8.12,0,0,1-5.45.81,7.56,7.56,0,0,1-4.74-3,9.1,9.1,0,0,1-1.53-6.24A12.17,12.17,0,0,1,25,11.34,7.39,7.39,0,0,1,30.3,8.42a6.29,6.29,0,0,1,5.39,2.42,12.14,12.14,0,0,1,2.46,7.47.83.83,0,0,1-.21.56.67.67,0,0,1-.52.25A.65.65,0,0,1,37.08,19.12ZM24,17.55l12.5.07a9.83,9.83,0,0,0-2.18-5.83,5,5,0,0,0-4-1.79,6,6,0,0,0-4,2.12A9.66,9.66,0,0,0,24,17.55Z" style="fill:#363636"/><path d="M40.66,26.82V9.19a.77.77,0,0,1,.76-.76.74.74,0,0,1,.54.23.72.72,0,0,1,.23.53v2.89a16.8,16.8,0,0,1,6.38-3.7.78.78,0,0,1,.58.08.7.7,0,0,1,.35.47.75.75,0,0,1-.53.92,11.64,11.64,0,0,0-3.42,1.56,26,26,0,0,0-3.36,2.75q-.07,11.7-.07,12.66a.78.78,0,0,1-.78.76.72.72,0,0,1-.53-.23A.68.68,0,0,1,40.66,26.82Z" style="fill:#363636"/><path d="M66.62,19.12h0L53.39,19a7.39,7.39,0,0,0,1.38,4.9,6.09,6.09,0,0,0,3.7,2.33A6.5,6.5,0,0,0,63,25.58a7.17,7.17,0,0,0,3.28-3.69.71.71,0,0,1,.4-.4.6.6,0,0,1,.58,0,.77.77,0,0,1,.42.41.64.64,0,0,1,0,.6,8.42,8.42,0,0,1-4,4.51,8.11,8.11,0,0,1-5.45.8,7.48,7.48,0,0,1-4.74-3A9.08,9.08,0,0,1,52,18.54a12.17,12.17,0,0,1,2.57-7.16,7.43,7.43,0,0,1,5.31-2.92,6.27,6.27,0,0,1,5.38,2.42,12.09,12.09,0,0,1,2.47,7.48.81.81,0,0,1-.21.55.67.67,0,0,1-.52.25A.78.78,0,0,1,66.62,19.12ZM53.53,17.55,66,17.62a9.77,9.77,0,0,0-2.18-5.83,5,5,0,0,0-4-1.79,6,6,0,0,0-4,2.12,9.74,9.74,0,0,0-2.3,5.43Z" style="fill:#363636"/><path d="M70,12.12a11.7,11.7,0,0,1,2.48-2.68,5.77,5.77,0,0,1,3.19-1.16,5.21,5.21,0,0,1,2.83.48,4.7,4.7,0,0,1,2,1.76A11.54,11.54,0,0,1,81.68,13a14.88,14.88,0,0,1,.69,3c.09.56.15,1.15.22,1.76s.1,1.25.11,1.87,0,1.2,0,1.71v3.3a10.55,10.55,0,0,1-.08,1.44,6.16,6.16,0,0,0-.05,1.09.7.7,0,0,1-.25.52.91.91,0,0,1-.57.21.63.63,0,0,1-.51-.25.83.83,0,0,1-.21-.56V25.41a10.53,10.53,0,0,1-2.62,1.65c-2.52,1.18-4.68,1.23-6.54.15A5.49,5.49,0,0,1,70,25.35a6.48,6.48,0,0,1-.86-2.63,6.38,6.38,0,0,1,1.61-5.24,6.77,6.77,0,0,1,6.23-2A8,8,0,0,1,80.9,17c0-.24-.07-.47-.12-.7a11.15,11.15,0,0,0-1.67-4.87,3.54,3.54,0,0,0-3.27-1.51,4.62,4.62,0,0,0-2.45.91A10,10,0,0,0,71.3,13.1a.67.67,0,0,1-.48.28.74.74,0,0,1-.89-.56.09.09,0,0,0,0-.05A.82.82,0,0,1,70,12.12Zm11.13,7.15A5.66,5.66,0,0,0,76.77,17a5.46,5.46,0,0,0-5,1.49,5,5,0,0,0-1.19,4.05,4.22,4.22,0,0,0,2,3.38c1.36.82,3.07.76,5.11-.19a10.93,10.93,0,0,0,3.41-2.46Z" style="fill:#363636"/><path d="M85,26.66V1.3a.71.71,0,0,1,.24-.53A.77.77,0,0,1,86.33.68a.78.78,0,0,1,.26.67V26.7a.76.76,0,0,1-.23.55.77.77,0,0,1-1.09,0,.79.79,0,0,1-.22-.52Z" style="fill:#363636"/><path d="M117.94,5.71A6.6,6.6,0,0,0,115,2.44a7.25,7.25,0,0,0-4.31-.82,8.12,8.12,0,0,0-4.23,1.75,13.31,13.31,0,0,0-4.59,6.54,15.26,15.26,0,0,0-.33,8.26A10.63,10.63,0,0,0,105,24.32a8.45,8.45,0,0,0,5.66,2.18,7.38,7.38,0,0,0,5.37-2.4,10.41,10.41,0,0,0,2.64-6.72.8.8,0,0,1,.27-.51.66.66,0,0,1,.55-.17.81.81,0,0,1,.54.27.69.69,0,0,1,.17.58,11.67,11.67,0,0,1-3.09,7.63A9,9,0,0,1,110.72,28a9.93,9.93,0,0,1-6.67-2.49,12.44,12.44,0,0,1-4-7,17.25,17.25,0,0,1,.43-9.07,15.09,15.09,0,0,1,5.11-7.28,9.6,9.6,0,0,1,4.92-2,8.73,8.73,0,0,1,5.24,1,7.89,7.89,0,0,1,3.59,4.05.68.68,0,0,1,0,.59.8.8,0,0,1-.43.42.6.6,0,0,1-.58,0A.8.8,0,0,1,117.94,5.71Z" style="fill:#363636"/><path d="M132.1,8.43a8.59,8.59,0,0,1,4.55,4.11,11.31,11.31,0,0,1,1.27,6.12A10.81,10.81,0,0,1,135.5,25a6.86,6.86,0,0,1-2.74,2,7.5,7.5,0,0,1-3.62.55,7.38,7.38,0,0,1-4.37-1.94,8.27,8.27,0,0,1-2.38-3.9,11.72,11.72,0,0,1-.31-4.64,12.37,12.37,0,0,1,2.18-5.7,8.06,8.06,0,0,1,4.81-3.27.68.68,0,0,1,.73-.34,5,5,0,0,0,.66.11,8.34,8.34,0,0,1,1,0A.7.7,0,0,1,132.1,8.43Zm-1.92,1.09A6.55,6.55,0,0,0,125.6,12a9.91,9.91,0,0,0-2.18,5.29,9,9,0,0,0,1.09,5.89,5.75,5.75,0,0,0,4.63,2.87,5.47,5.47,0,0,0,5-1.87,9,9,0,0,0,2.18-5.52,9.8,9.8,0,0,0-1.38-5.79,7.18,7.18,0,0,0-4.67-3.33Z" style="fill:#363636"/><path d="M142.38,14.05q-.15,11.81-.15,12.77a.78.78,0,0,1-1.28.58l0,0a.68.68,0,0,1-.24-.53q0-1,.12-12.77V9a.75.75,0,0,1,.73-.77.77.77,0,0,1,.56.23.67.67,0,0,1,.24.54V11a8.27,8.27,0,0,1,3.43-2.46,7.83,7.83,0,0,1,2.36-.39,4.57,4.57,0,0,1,2.29.66,5.77,5.77,0,0,1,2,1.93c1.09,1.71,1.78,4.36,2,8a39.82,39.82,0,0,1,0,4.37c-.06,2.47-.08,3.74-.08,3.79a.77.77,0,0,1-.86.68.79.79,0,0,1-.68-.68c0-.05,0-1.3.08-3.74a39.63,39.63,0,0,0,0-4.36c-.16-3.27-.73-5.74-1.74-7.23a3.75,3.75,0,0,0-4.81-1.62,6.84,6.84,0,0,0-2.4,1.62A7.06,7.06,0,0,0,142.38,14.05Z" style="fill:#363636"/><path d="M168.73,14.28a6.36,6.36,0,0,0-1.34-2.12,7.31,7.31,0,0,0-2-1.58,4,4,0,0,0-4.58.23q-2.09,1.57-2.69,5.45a12.65,12.65,0,0,0,.38,6.43,5.17,5.17,0,0,0,2.18,2.81,5.63,5.63,0,0,0,3.43.76A6.28,6.28,0,0,0,167.44,25a5.57,5.57,0,0,0,2.06-2.93.74.74,0,0,1,.37-.48.66.66,0,0,1,.58-.07.82.82,0,0,1,.46.38.65.65,0,0,1,.05.56,6.79,6.79,0,0,1-2.55,3.76,8,8,0,0,1-4.19,1.59,7.38,7.38,0,0,1-4.31-1A6.49,6.49,0,0,1,157,23.24a14.59,14.59,0,0,1-.46-7.24c.51-3,1.61-5.12,3.27-6.43A5.27,5.27,0,0,1,163,8.48a5.89,5.89,0,0,1,3.08.73,8.4,8.4,0,0,1,2.51,2,8.36,8.36,0,0,1,1.66,2.6.8.8,0,0,1-.45,1,.79.79,0,0,1-.64,0A.82.82,0,0,1,168.73,14.28Z" style="fill:#363636"/><path d="M187.32,19.12h0L174.08,19a7.44,7.44,0,0,0,1.38,4.9,6.21,6.21,0,0,0,3.7,2.33,6.61,6.61,0,0,0,4.51-.69,7.19,7.19,0,0,0,3.27-3.69.75.75,0,0,1,.42-.4.56.56,0,0,1,.56,0,.82.82,0,0,1,.43.41.64.64,0,0,1,0,.6,8.36,8.36,0,0,1-4,4.46,8.15,8.15,0,0,1-5.46.81,7.51,7.51,0,0,1-4.73-3,9.06,9.06,0,0,1-1.54-6.24,12.25,12.25,0,0,1,2.58-7.16,7.37,7.37,0,0,1,5.31-2.92,6.28,6.28,0,0,1,5.31,2.46,12.15,12.15,0,0,1,2.46,7.48.86.86,0,0,1-.21.55.67.67,0,0,1-.53.25A.61.61,0,0,1,187.32,19.12Zm-13.09-1.57,12.5.07a9.77,9.77,0,0,0-2.18-5.83,4.93,4.93,0,0,0-4-1.79,6.1,6.1,0,0,0-4,2.12,9.8,9.8,0,0,0-2.29,5.43Z" style="fill:#363636"/><path d="M191,34.43V10.81a.77.77,0,0,1,.86-.68.79.79,0,0,1,.68.68v1.45a8.13,8.13,0,0,1,3.27-3.43,5.17,5.17,0,0,1,5.65.66,10.88,10.88,0,0,1,3.85,5.45,11.81,11.81,0,0,1,.23,7.27,7.65,7.65,0,0,1-2.72,4.14A8,8,0,0,1,198.44,28a7.16,7.16,0,0,1-3.27-.53,6.37,6.37,0,0,1-2.67-2v8.93a.71.71,0,0,1-.22.53.76.76,0,0,1-.55.23.78.78,0,0,1-.76-.76Zm1.61-18.27v6.08a.2.2,0,0,1,0,.11,5.55,5.55,0,0,0,2.25,3.19,5.63,5.63,0,0,0,3.54.93,6.34,6.34,0,0,0,5.72-4.62,10.49,10.49,0,0,0-.23-6.39,9.22,9.22,0,0,0-3.27-4.7,3.8,3.8,0,0,0-4.08-.53q-2.43,1.18-3.88,5.77C192.62,16.05,192.61,16.11,192.59,16.16Z" style="fill:#363636"/><path d="M213.29,8.38q0,1-.09,7.89t-.07,10.51a.72.72,0,0,1-.23.53.73.73,0,0,1-.54.24.7.7,0,0,1-.54-.24.76.76,0,0,1-.23-.53c0-2.41,0-5.91.1-10.51s.1-7.23.09-7.92H209.6a.63.63,0,0,1-.51-.25.82.82,0,0,1-.22-.56.67.67,0,0,1,.25-.52.86.86,0,0,1,.55-.21l2.19.08V3.12a.73.73,0,0,1,.23-.54.73.73,0,0,1,1-.06l.06.06a.76.76,0,0,1,.23.54V6.8l2-.07a.8.8,0,0,1,.55.2.67.67,0,0,1,.25.53.85.85,0,0,1-.2.55.67.67,0,0,1-.53.25Z" style="fill:#363636"/><path d="M218.37,25.82a.72.72,0,0,1,.23.53.77.77,0,0,1-.86.68.77.77,0,0,1-.68-.68.72.72,0,0,1,.23-.53.75.75,0,0,1,1.06,0l0,0Z" style="fill:#363636"/></g></g></svg>