<svg xmlns="http://www.w3.org/2000/svg" viewBox="0 0 275.01 54.57"><title>Fichier 3</title><g id="79aecf30-59af-4b73-987c-935b0dc8488f" data-name="Calque 2"><g id="1ca58f07-dcb5-4513-a414-d8bf9f0cc6a7" data-name="Calque 1"><g id="37eea8a7-779c-46ec-8436-37fc83f30ef0" data-name="52243eeb-f42c-475d-86d2-f7cd1cbe7e7a"><path d="M26.17,45.43l.11,7.25h3.9V45.3a14.79,14.79,0,0,0,3.24-.84l.09-1.89a16.92,16.92,0,0,0-1.06-3.39,9.67,9.67,0,0,0-6.58-4.44,25.47,25.47,0,0,0-10.38,0l1,3.07s1.86,3.91,3.53,5a12.72,12.72,0,0,0,5.85,2.45C26.19,45.27,26.17,45.43,26.17,45.43Z" style="fill:#fff"/><path d="M33.5,42.29c3.83-2,6.19-6.88,6.74-9.64A27.76,27.76,0,0,1,37,32.52c-2.29-.16-9.36.4-11.63,2.15,0,0,3.69.65,5.44,2.43A8.81,8.81,0,0,1,33.5,42.29Z" style="fill:#fff"/><path d="M19,34c-.24-.43-.71-.75-1-1.21a10,10,0,0,0-.74-1.41,4.64,4.64,0,0,1-.79-1.49c-.15-.53-.37-1-.53-1.58a7.24,7.24,0,0,1-.27-1.6,3.47,3.47,0,0,1,1.72-.37c.57,0,1.16,0,1.76,0s1.21.11,1.85.07a10,10,0,0,1,1.69.24,21.77,21.77,0,0,1,3.25.82,7.27,7.27,0,0,1,2.78,1.51,10.6,10.6,0,0,1,1.53,1.61,4.14,4.14,0,0,1,.6,1.09,4.09,4.09,0,0,1,.39,1.13,11.4,11.4,0,0,1-1.72.35,9.24,9.24,0,0,0-1.65.4c-.51.18-1,.43-1.52.64-.25.1-.48.23-.72.33a1.33,1.33,0,0,1-.9,0c-.53-.08-1-.13-1.58-.19s-1,0-1.52,0a9.29,9.29,0,0,0-1.49-.15c-.46.06-1.08.41-1.27-.2a.41.41,0,0,0-.11,0" style="fill:#fff"/><path d="M26.17,27.31a4.75,4.75,0,0,1,1.72-.67c.54-.18,1.07-.46,1.62-.66A10.54,10.54,0,0,1,33,25.23c1.06,0,2.13.09,3.18,0l1.53-.08a12.12,12.12,0,0,1,1.52.13,1.88,1.88,0,0,1,0,.58,4.41,4.41,0,0,1-.15,1c-.08.27-.25.48-.31.75a8.71,8.71,0,0,1-.17.86c-.08.25-.31.5-.42.75a6.67,6.67,0,0,1-.35.71,14.72,14.72,0,0,0-1,1.49c-.29.66-.51.91-1.23,1s-1.24.07-1.89.07-1.3,0-2,0c-.46,0-.36,0-.6-.3a2.82,2.82,0,0,1-.35-.64,4,4,0,0,0-.9-1.48,8.28,8.28,0,0,0-1.1-1c-.86-.67-1.82-1-2.69-1.62.07-.08.11-.32.22-.34" style="fill:#fff"/><path d="M30.67,25.23s0-3.32-4.51-5.07a19.31,19.31,0,0,0-6.7-1.48c-1.22,0-1.44-.21-1.53.07a11,11,0,0,0-.26,2.05,14.09,14.09,0,0,0,.79,3.81,10,10,0,0,0,.8,1.55c.16.14,3.39.49,3.78.57s2.69.64,2.9.7,4.26-1.54,4.26-1.54l.57-.08Z" style="fill:#fff"/><path d="M26.63,20.12c.69-.43,3.87-2.13,5.36-2.18s3.11-.41,3.7-.42a13.26,13.26,0,0,1,1.67.11v2.08l-.56,3-1.28,2.13-.26.45H33.48l-2,.35-.68.16-.47-2.07a13.84,13.84,0,0,0-.94-1.33,19.19,19.19,0,0,0-2.49-1.89C26.46,20.3,26.63,20.12,26.63,20.12Z" style="fill:#fff"/><path d="M30.71,17.9a4.43,4.43,0,0,0-.37-2.59,10.85,10.85,0,0,0-2.65-3.08c-.82-.55-3.7-2.18-5.08-2s-1.3.06-1.3.06a2.16,2.16,0,0,0-.46,1c-.16.62-.39,3.57-.39,3.57L21,17.21l.72,1.39,1.38.59,2.49.76.85.33,1.05-.65,1.89-1,1.22-.28Z" style="fill:#fff"/><path d="M27.44,11.67A31,31,0,0,1,30.82,9.6c.71-.25,2.91-.78,3.26-.84A6.67,6.67,0,0,1,35,8.69a6.14,6.14,0,0,1,.3,1c.08.46.31,2.5.31,2.5l0,2.23-.74,1.76-1.14,1.47L32,18l-1.37.38L30.77,17a5.58,5.58,0,0,0-.66-2.08,9.94,9.94,0,0,0-1.85-2.24c-.57-.43-1.16-.8-1.16-.8Z" style="fill:#fff"/><path d="M23.26,10a9.22,9.22,0,0,1,.33-3.3c.49-1,2-3.17,2-3.17L28,1.41l.93.94,3.25,4.44s.26,1.14.26,1.26-.1,1.1-.1,1.1l-2.15.79-2.21,1.39-.66.59L25.43,11l-1.8-.71-.36-.07Z" style="fill:#fff"/><path d="M26.61,53.17l-.06,0c-.21-.14-.53-.49,0-.91l.07,0H29.7v-7.3s0-.06,0,0l.64-.05.41,0,.31,0a9.46,9.46,0,0,0,1.18-.23,3.24,3.24,0,0,0,.52-.19.93.93,0,0,0,.19-.11l.06,0a2.44,2.44,0,0,0,.06-.26,2.09,2.09,0,0,0,0-.36,4.42,4.42,0,0,0,0-.73,8,8,0,0,0-.2-1.47,8.79,8.79,0,0,0-.48-1.42,7.8,7.8,0,0,0-.75-1.28,7.92,7.92,0,0,0-2.15-2.05,10.75,10.75,0,0,0-2.77-1.23l-.36-.11-.38-.09L25.33,35c-.51-.08-1-.17-1.54-.21-.25,0-.51-.06-.77-.07l-.77,0c-.52,0-1,0-1.56,0s-1,.06-1.56.08-1,.11-1.56.16c-.26,0-.52.07-.77.11l-.68.1h0l.16.53A14.57,14.57,0,0,0,19.13,41a10.91,10.91,0,0,0,1.06,1.09c.18.18.4.32.59.48s.4.31.61.45l.65.41.67.35a11.54,11.54,0,0,0,2.88.93c.13,0,.17,0,.53.06l.4,0h.15v1.36l0,2.13v.76s0,.5-.08,1.14c0,.44-.08.95-.14,1.39-.19,1.76-.41,1.06-.54,0,0,.06-.07-.65-.12-1.35L25.74,49v-.74l0-2.49-.32,0a7.66,7.66,0,0,1-.8-.18c-.27-.08-.53-.13-.78-.22S23.29,45.1,23,45s-.5-.2-.74-.33l-.72-.37-.68-.43c-.11-.08-.23-.14-.34-.23l-.32-.24c-.21-.17-.43-.33-.63-.51L19,42.32l-.3-.25-.26-.31L18,41.15a15.87,15.87,0,0,1-2.77-5.73L15,34.71l-.11-.37s0,0,0,0H15l.19,0,1.15-.18.77-.12.78-.08c.53-.06,1-.12,1.57-.14l.79,0h.79a19.53,19.53,0,0,1,6.29.8,11.89,11.89,0,0,1,2.92,1.4,8.9,8.9,0,0,1,2.33,2.29,8.58,8.58,0,0,1,1.31,3,8.87,8.87,0,0,1,.21,1.63,4.63,4.63,0,0,1,0,.83,3.15,3.15,0,0,1,0,.43,2.75,2.75,0,0,1-.14.49,1.14,1.14,0,0,1-.18.25,1.07,1.07,0,0,1-.19.18,1.75,1.75,0,0,1-.35.2,3.94,3.94,0,0,1-.68.25,9.76,9.76,0,0,1-1.31.25l-.32,0-.22,0v7.42H26.61Z" style="fill:#000100"/><path d="M26.06,34.76a.08.08,0,0,1-.07,0,.67.67,0,0,1-.39-.2c-.11-.12-.15-.32,0-.63l.06-.07c.51-.22,1-.41,1.55-.59A29.11,29.11,0,0,1,38.9,32l.73.08.69.08.36,0h0s0,0,0,0l0,.09,0,.18-.27,1.11-.09.37c0,.12-.08.23-.11.35L40,35c-.08.24-.19.47-.28.71a13.94,13.94,0,0,1-.65,1.35,15,15,0,0,1-1.69,2.47l-.11.13,0,.05-.08.09L37,40l-.33.37-.2.17-.49.41a10.83,10.83,0,0,1-1.42.93c-.8.44-1.1.45-1.06.32a4.38,4.38,0,0,1,.76-.78s.45-.38.9-.85l.34-.34.28-.32A2.76,2.76,0,0,0,36,39.6l.31-.33.15-.17,0,0,.09-.12.22-.27c.3-.35.55-.74.81-1.11s.49-.78.69-1.2a14.61,14.61,0,0,0,1-2.56c.06-.22.11-.44.17-.67l0-.07h0L38.62,33A31,31,0,0,0,33,33a27,27,0,0,0-5.48,1.17C27,34.37,26.54,34.55,26.06,34.76Z" style="fill:#000100"/><path d="M19.36,33.64a.11.11,0,0,1,0,.06.65.65,0,0,1-.09.43c-.08.14-.26.24-.6.18l-.08,0a14.54,14.54,0,0,1-1-1.33,13.22,13.22,0,0,1-2.26-5.42c0-.13,0-.25,0-.38l-.07-.66,0-.18v0h0l.09,0,.35-.08.34-.09.2,0a14.06,14.06,0,0,1,1.47-.22,20.33,20.33,0,0,1,2.92,0A19,19,0,0,1,26.33,27a12.43,12.43,0,0,1,2.6,1.43l.47.38.38.34a6.64,6.64,0,0,1,.58.71,6.48,6.48,0,0,1,.81,1.54,3.47,3.47,0,0,1,.21.9c0,.18,0,.23-.08.2a4,4,0,0,1-.63-.88c0,.05-.31-.48-.72-1a7.7,7.7,0,0,0-.93-.88,3,3,0,0,0-.33-.29l-.18-.14-.15-.12-.28-.19a11.22,11.22,0,0,0-2.38-1.24,17.68,17.68,0,0,0-5.34-1.08,16.46,16.46,0,0,0-2.72.05,10,10,0,0,0-1.33.21h0l0,.14a1.86,1.86,0,0,0,0,.33,12.22,12.22,0,0,0,2.09,4.93A14,14,0,0,0,19.36,33.64Z" style="fill:#000100"/><path d="M26.63,27.65a.06.06,0,0,1-.06,0,.69.69,0,0,1-.41-.17c-.12-.11-.18-.31,0-.63l.05-.07a13.21,13.21,0,0,1,1.53-.69,24.82,24.82,0,0,1,8.6-1.52h1.09c.37,0,.73,0,1.09.05l.57,0,.53,0,.26,0h.07s.05,0,0,0v.14l0,.95a5,5,0,0,1-.07.56,9.16,9.16,0,0,1-.6,2.18l-.07.18-.05.11-.1.23c-.07.15-.14.3-.22.45s-.19.34-.49.76a11.43,11.43,0,0,1-1.11,1.29c-.65.64-.93.74-.93.61a4.54,4.54,0,0,1,.52-1s.32-.49.63-1.06A12.63,12.63,0,0,0,38,29c.07-.14.13-.27.19-.41l.09-.2.15-.39a8.22,8.22,0,0,0,.48-1.94,2.42,2.42,0,0,0,0-.25v-.18h0l-.69-.05c-.35,0-.69,0-1,0s-.69,0-1,0A23.94,23.94,0,0,0,28.05,27,14,14,0,0,0,26.63,27.65Z" style="fill:#000100"/><path d="M19.51,25.6s0,0,0,.06a.7.7,0,0,1-.16.41c-.1.12-.29.2-.62.08l-.07,0a10.84,10.84,0,0,1-.75-1.53,9.57,9.57,0,0,1-.66-5c0-.11,0-.21.06-.32l.09-.39.14-.59h2.53l.62.06,1.23.11A14.72,14.72,0,0,1,26.69,20l.55.31a4.86,4.86,0,0,1,.53.35l.52.38.47.43.25.22a1,1,0,0,1,.17.18l.34.37.16.21L30,23a7,7,0,0,1,.38.78,5,5,0,0,1,.28.82c.24.89.13,1.19,0,1.11a6.43,6.43,0,0,1-.55-.93s-.06-.11-.18-.3l-.2-.35-.26-.38c-.18-.27-.41-.5-.55-.69a1.61,1.61,0,0,0-.29-.29l-.29-.33-.16-.15L27.91,22l-.23-.16-.22-.17L27,21.29a4.8,4.8,0,0,0-.48-.3l-.5-.28a14.31,14.31,0,0,0-4.38-1.3l-1.16-.11-.58-.05H18.33a3.33,3.33,0,0,0-.1.55,8.59,8.59,0,0,0,.6,4.41A10.51,10.51,0,0,0,19.51,25.6Z" style="fill:#000100"/><path d="M27,20.38a0,0,0,0,1-.05,0,.57.57,0,0,1-.18,0c-.07,0-.11-.07-.2-.08a.34.34,0,0,1-.22-.15.67.67,0,0,1,0-.44.19.19,0,0,1,.05-.09,9.2,9.2,0,0,1,1.5-.85,20.78,20.78,0,0,1,3.53-1.23A18,18,0,0,1,35.12,17a7.37,7.37,0,0,1,.94,0h.48l.23,0,.39,0,.42,0h.11s0,0,0,0v.06l0,.23.06.7c0,.32,0,.64,0,1s0,.63,0,.95-.07.64-.14.95l0,.29a2.1,2.1,0,0,1-.06.24l-.12.49s0,.09-.09.24-.14.37-.26.6a8.41,8.41,0,0,1-.88,1.47c-.55.73-.84.85-.84.72a4.25,4.25,0,0,1,.39-1s.24-.53.44-1.14c.1-.31.19-.62.25-.86l.09-.4c0-.14.07-.28.11-.43l.11-.58a10.84,10.84,0,0,0,.12-1.71v-.43c0-.14,0-.29,0-.43v0h-.07l-.4,0a3.24,3.24,0,0,1-.44,0c-.29,0-.57,0-.87,0a18.92,18.92,0,0,0-6.76,1.7A8.55,8.55,0,0,0,27,20.38Z" style="fill:#000100"/><path d="M22.1,18.39a.13.13,0,0,1,0,.06.76.76,0,0,1-.15.42.52.52,0,0,1-.62.08l-.08-.05a9.8,9.8,0,0,1-.74-1.53A10.28,10.28,0,0,1,19.93,15,8.74,8.74,0,0,1,20,12.55l.13-.6a5.76,5.76,0,0,1,.18-.59,4.07,4.07,0,0,1,.22-.58l.28-.6c.09-.16.12-.4.36-.38l.45-.08.63-.05a7.38,7.38,0,0,1,1.24.08,9.07,9.07,0,0,1,2.34.72,11.25,11.25,0,0,1,2.08,1.25,10.7,10.7,0,0,1,1.74,1.69l.09.11,0,.05.08.1.15.2c.09.14.19.28.27.42a5.49,5.49,0,0,1,.38.86A4.81,4.81,0,0,1,31,16.87a2.26,2.26,0,0,1-.13.93c-.06.16-.11.2-.15.15a.83.83,0,0,1-.11-.37c0-.19-.08-.42-.15-.67a7.43,7.43,0,0,0-.39-1.12,6.59,6.59,0,0,0-.65-1.08c-.09-.12-.16-.25-.25-.36L29,14.17l0,0L28.91,14l-.18-.21a9.1,9.1,0,0,0-1.58-1.46,8.8,8.8,0,0,0-3.94-1.67,6.16,6.16,0,0,0-1.05,0,4.43,4.43,0,0,0-.51.06h0l0,.06-.23.48c-.06.17-.11.34-.17.51a7.43,7.43,0,0,0-.27,1,8.52,8.52,0,0,0-.05,2.14A9.34,9.34,0,0,0,21.43,17,8.79,8.79,0,0,0,22.1,18.39Z" style="fill:#000100"/><path d="M27.76,12a.07.07,0,0,1-.06,0,.64.64,0,0,1-.43-.12c-.13-.09-.21-.28-.12-.61a.25.25,0,0,1,0-.07c.45-.33.91-.63,1.38-.92a18,18,0,0,1,2.92-1.44,11.1,11.1,0,0,1,1.59-.46l.41-.09.42-.05a3,3,0,0,1,.42,0h1s0,0,.05.06l0,.09.06.19.17.56a7.27,7.27,0,0,1,.22.8c0,.27.13.53.16.8s.08.55.11.83l0,.82,0,.83,0,.53c0,.17-.05.33-.08.5a7.63,7.63,0,0,1-1,2.42c-.52.76-.81.88-.81.75a5,5,0,0,1,.35-1s.21-.53.35-1.17a3.41,3.41,0,0,0,.1-.46c0-.15.06-.28.07-.4s0-.41,0-.41,0-.29.06-.44a3.11,3.11,0,0,0,0-.54,10.41,10.41,0,0,0,0-1.48l-.1-.74L34.85,10c-.05-.25-.14-.48-.21-.72l0-.09h-.31l-.36,0a6,6,0,0,0-.72.13,10.09,10.09,0,0,0-1.42.43,16.25,16.25,0,0,0-2.71,1.34C28.64,11.4,28.19,11.69,27.76,12Z" style="fill:#000100"/><path d="M23.66,9.76a.15.15,0,0,1,0,.06.72.72,0,0,1-.3.3c-.14.09-.35.1-.6-.17a.35.35,0,0,1-.05-.08,5.84,5.84,0,0,1,.09-1.77,9.93,9.93,0,0,1,1.56-3.57A16.45,16.45,0,0,1,26.9,1.68l1-.9,0,0s0,0,0,0l0,0,.08.08.16.18.31.32.35.38c.44.45.85.93,1.26,1.41l.6.73.57.77.31.44c.09.14.19.27.27.42l.11.23a5.46,5.46,0,0,1,.27.6A4.45,4.45,0,0,1,32.7,8a1.51,1.51,0,0,1-.26.94c-.11.13-.17.15-.2.09a2.29,2.29,0,0,1,0-.37,2.72,2.72,0,0,0-.08-.63,1.81,1.81,0,0,1-.09-.31c0-.11-.09-.23-.14-.35s-.14-.28-.2-.41c-.16-.28-.32-.56-.46-.76L31,5.89l-.26-.37a5.71,5.71,0,0,0-.35-.5c-.35-.48-.73-.94-1.12-1.41s-.79-.9-1.21-1.34l-.17-.19h0l-.47.41a15.59,15.59,0,0,0-2.35,2.65A8.67,8.67,0,0,0,23.74,8.3,5.1,5.1,0,0,0,23.66,9.76Z" style="fill:#000100"/><path d="M15.49,34.72S29.87,40.27,30.18,45.3a63.65,63.65,0,0,1,.16,7.38H26.17l0-7.42s-4.52-.77-6.12-2.4a15.7,15.7,0,0,1-4-6.3c-.61-2.29-.6-1.23-.6-1.23Z" style="fill:#56c3e8;opacity:0.20000000298023224;isolation:isolate"/><path d="M33.5,42.29l2.85-2.21,2.21-3,1.16-2.64.49-1.55,0-.24S32.83,33.94,31.65,38c.14.27.32.3.32.3l1.35,2.75Z" style="fill:#56c3e8;opacity:0.20000000298023224;isolation:isolate"/><path d="M19.12,34.22l-2.07-3.15-.91-2.18-.47-2.2s10.59,3.88,11.85,7c-1.17.51-1.89.84-1.89.84l-3.14-.29Z" style="fill:#56c3e8;opacity:0.20000000298023224;isolation:isolate"/><path d="M19.27,26.13,18,23l-.07-4.26s8.52,4.65,8.66,7.94-.49.7-.49.7l-2.44-.7Z" style="fill:#56c3e8;opacity:0.20000000298023224;isolation:isolate"/><path d="M31.05,33.1l5.27-.84,2-2.9,1.35-4.31S32,26.3,30.61,31.11A3.56,3.56,0,0,1,31.05,33.1Z" style="fill:#56c3e8;opacity:0.20000000298023224;isolation:isolate"/><path d="M30.61,25.71l4.9-.88L36.8,22.7l.55-4.38-.09-.81s-7,3-7.26,6.23A10.68,10.68,0,0,1,30.61,25.71Z" style="fill:#56c3e8;opacity:0.20000000298023224;isolation:isolate"/><path d="M21.59,18.75l-1.13-3.43.17-3.4.67-1.65s7.07,4.59,5.79,9c-.12.42-.93.88-.93.88l-1.53-.65-1.7-.37Z" style="fill:#56c3e8;opacity:0.20000000298023224;isolation:isolate"/><path d="M31.65,18l.75-.12,1.49-.44.72-.93,1.15-2.67-.42-3.56L35,8.69s-4.35,2.91-4.35,7.51C30.62,18.32,31.65,18,31.65,18Z" style="fill:#56c3e8;opacity:0.20000000298023224;isolation:isolate"/><path d="M28,11.11l1.51-.7s1.61-.81,1.69-.83S32.4,8.8,32.4,8.8l-.26-1.91L31.24,5,29.88,3.62,27.62,1.24s2.84,6.16-.37,10.21C26.88,11.92,28,11.11,28,11.11Z" style="fill:#56c3e8;opacity:0.20000000298023224;isolation:isolate"/><path d="M22,53A26.36,26.36,0,0,1,22,1.57V.08a27.82,27.82,0,0,0,0,54.41Z" style="fill:#000100"/><path d="M33.25,0V1.49a26.36,26.36,0,0,1,0,51.59v1.49A27.82,27.82,0,0,0,33.25,0Z" style="fill:#000100"/></g><g style="isolation:isolate"><path d="M91.4,18a6.13,6.13,0,0,0-2.69-3,6.64,6.64,0,0,0-3.95-.75,7.49,7.49,0,0,0-3.88,1.6,12.28,12.28,0,0,0-4.21,6,14.07,14.07,0,0,0-.3,7.57,9.74,9.74,0,0,0,3.17,5.64,7.79,7.79,0,0,0,5.19,2,6.76,6.76,0,0,0,4.88-2.17A9.54,9.54,0,0,0,92,28.7a.75.75,0,0,1,.25-.47.62.62,0,0,1,.51-.16.75.75,0,0,1,.49.25.64.64,0,0,1,.16.53,10.7,10.7,0,0,1-2.84,7,8.27,8.27,0,0,1-5.87,2.58,9.13,9.13,0,0,1-6.09-2.29A11.41,11.41,0,0,1,75,29.69a15.85,15.85,0,0,1,.39-8.32A13.84,13.84,0,0,1,80,14.7a8.72,8.72,0,0,1,4.51-1.87,8,8,0,0,1,4.8.88,7.22,7.22,0,0,1,3.31,3.71.58.58,0,0,1,0,.54.74.74,0,0,1-.39.39.53.53,0,0,1-.52,0A.67.67,0,0,1,91.4,18Z" style="fill:#1d1d1b"/><path d="M108.61,30.29v0l-12.14-.07a6.84,6.84,0,0,0,1.27,4.49,5.69,5.69,0,0,0,3.39,2.14,6.07,6.07,0,0,0,4.13-.64,6.58,6.58,0,0,0,3-3.38.7.7,0,0,1,.37-.37.55.55,0,0,1,.53,0,.76.76,0,0,1,.39.38.6.6,0,0,1,0,.55,7.64,7.64,0,0,1-3.63,4.09,7.45,7.45,0,0,1-5,.74,6.86,6.86,0,0,1-4.34-2.78,8.31,8.31,0,0,1-1.41-5.72,11.2,11.2,0,0,1,2.36-6.56,6.79,6.79,0,0,1,4.87-2.68,5.77,5.77,0,0,1,4.94,2.22,11.12,11.12,0,0,1,2.25,6.85.75.75,0,0,1-.19.51.62.62,0,0,1-.48.23A.61.61,0,0,1,108.61,30.29Zm-12-1.44,11.46.07a9,9,0,0,0-2-5.35,4.56,4.56,0,0,0-3.67-1.64,5.55,5.55,0,0,0-3.68,1.94A8.93,8.93,0,0,0,96.62,28.85Z" style="fill:#1d1d1b"/><path d="M111.89,37.35q0-2.68,0-8.08t0-8.08a.72.72,0,0,1,.7-.7.69.69,0,0,1,.5.21.67.67,0,0,1,.21.49v2.65a15.26,15.26,0,0,1,5.85-3.39.69.69,0,0,1,.53.07.67.67,0,0,1,.32.43.69.69,0,0,1-.49.84,10.93,10.93,0,0,0-3.13,1.43,23.47,23.47,0,0,0-3.08,2.52q-.08,10.73-.07,11.61a.72.72,0,0,1-.71.7.67.67,0,0,1-.49-.21A.68.68,0,0,1,111.89,37.35Z" style="fill:#1d1d1b"/><path d="M135.69,30.29v0l-12.13-.07a6.79,6.79,0,0,0,1.27,4.49,5.63,5.63,0,0,0,3.39,2.14,6,6,0,0,0,4.12-.64,6.56,6.56,0,0,0,3-3.38.7.7,0,0,1,.37-.37.55.55,0,0,1,.53,0,.76.76,0,0,1,.39.38.6.6,0,0,1,0,.55A7.68,7.68,0,0,1,133,37.52a7.45,7.45,0,0,1-5,.74,6.86,6.86,0,0,1-4.34-2.78,8.31,8.31,0,0,1-1.41-5.72,11.13,11.13,0,0,1,2.36-6.56,6.79,6.79,0,0,1,4.87-2.68,5.75,5.75,0,0,1,4.93,2.22,11.06,11.06,0,0,1,2.26,6.85.75.75,0,0,1-.19.51.62.62,0,0,1-.48.23A.69.69,0,0,1,135.69,30.29Zm-12-1.44,11.47.07a9,9,0,0,0-2-5.35,4.56,4.56,0,0,0-3.67-1.64,5.53,5.53,0,0,0-3.68,1.94A9,9,0,0,0,123.7,28.85Z" style="fill:#1d1d1b"/><path d="M138.8,23.87a10.8,10.8,0,0,1,2.27-2.45A5.34,5.34,0,0,1,144,20.35a4.82,4.82,0,0,1,2.59.44,4.38,4.38,0,0,1,1.8,1.62,10.77,10.77,0,0,1,1.11,2.29,14.47,14.47,0,0,1,.63,2.7c.08.52.14,1.06.2,1.62s.09,1.14.1,1.71,0,1.1,0,1.57,0,1,0,1.62,0,1.08,0,1.4,0,.76-.07,1.32-.05.91-.05,1a.62.62,0,0,1-.23.48.8.8,0,0,1-.52.19.58.58,0,0,1-.47-.23.75.75,0,0,1-.19-.51c0-.16,0-.41,0-.76s0-.59,0-.75a9.85,9.85,0,0,1-2.4,1.51c-2.31,1.08-4.29,1.13-6,.14A5.06,5.06,0,0,1,138.78,36a6,6,0,0,1-.79-2.41,5.84,5.84,0,0,1,1.48-4.8,6.21,6.21,0,0,1,5.71-1.83,7.34,7.34,0,0,1,3.6,1.34,4.5,4.5,0,0,0-.11-.64,10.06,10.06,0,0,0-1.53-4.46,3.24,3.24,0,0,0-3-1.39,4.2,4.2,0,0,0-2.24.84,9.19,9.19,0,0,0-1.92,2.12.62.62,0,0,1-.44.26.68.68,0,0,1-.82-.56A.73.73,0,0,1,138.8,23.87ZM149,30.43A5.17,5.17,0,0,0,145,28.32a5,5,0,0,0-4.55,1.37,4.52,4.52,0,0,0-1.09,3.71,3.88,3.88,0,0,0,1.83,3.1q1.88,1.13,4.69-.18A10,10,0,0,0,149,34.07C149,32.73,149,31.51,149,30.43Z" style="fill:#1d1d1b"/><path d="M152.55,37.2c0-2.58,0-6.46,0-11.62s0-9,0-11.62a.64.64,0,0,1,.22-.49A.7.7,0,0,1,154,14q0,3.88,0,11.62c0,5.16,0,9,0,11.62a.69.69,0,0,1-.21.5.71.71,0,0,1-1.2-.5Z" style="fill:#1d1d1b"/><path d="M182.74,18a6.06,6.06,0,0,0-2.68-3,6.62,6.62,0,0,0-3.95-.75,7.49,7.49,0,0,0-3.88,1.6,12.28,12.28,0,0,0-4.21,6,14.07,14.07,0,0,0-.3,7.57,9.74,9.74,0,0,0,3.17,5.64,7.79,7.79,0,0,0,5.19,2A6.76,6.76,0,0,0,181,34.86a9.54,9.54,0,0,0,2.42-6.16.75.75,0,0,1,.25-.47.62.62,0,0,1,.51-.16.75.75,0,0,1,.49.25.64.64,0,0,1,.16.53,10.7,10.7,0,0,1-2.84,7,8.27,8.27,0,0,1-5.87,2.58A9.13,9.13,0,0,1,170,36.15a11.41,11.41,0,0,1-3.68-6.46,15.85,15.85,0,0,1,.39-8.32,13.84,13.84,0,0,1,4.69-6.67,8.72,8.72,0,0,1,4.51-1.87,8,8,0,0,1,4.8.88A7.22,7.22,0,0,1,184,17.42a.58.58,0,0,1,0,.54.74.74,0,0,1-.39.39.55.55,0,0,1-.53,0A.74.74,0,0,1,182.74,18Z" style="fill:#1d1d1b"/><path d="M195.72,20.49a7.89,7.89,0,0,1,4.17,3.77,10.4,10.4,0,0,1,1.16,5.61A10,10,0,0,1,200.4,33a9.52,9.52,0,0,1-1.57,2.7,6.3,6.3,0,0,1-2.51,1.8A6.85,6.85,0,0,1,193,38,6.74,6.74,0,0,1,189,36.22a7.5,7.5,0,0,1-2.18-3.57,10.64,10.64,0,0,1-.29-4.26,11.28,11.28,0,0,1,2-5.22,7.4,7.4,0,0,1,4.41-3,.63.63,0,0,1,.67-.31,5.36,5.36,0,0,0,.6.1,7.06,7.06,0,0,1,.92,0A.65.65,0,0,1,195.72,20.49Zm-1.76,1a6,6,0,0,0-4.2,2.27,9.14,9.14,0,0,0-2,4.85,8.26,8.26,0,0,0,1,5.4A5.23,5.23,0,0,0,193,36.64a5,5,0,0,0,4.55-1.71,8.24,8.24,0,0,0,2-5.06,9,9,0,0,0-1.27-5.31A6.59,6.59,0,0,0,194,21.51Z" style="fill:#1d1d1b"/><path d="M205.14,25.64Q205,36.47,205,37.35a.68.68,0,0,1-.21.49.68.68,0,0,1-1,0,.66.66,0,0,1-.22-.49q0-.89.11-11.71v-.25c0-1.62,0-3.07,0-4.34a.69.69,0,0,1,1.19-.49.64.64,0,0,1,.22.49v1.76a7.48,7.48,0,0,1,3.14-2.25,7.08,7.08,0,0,1,2.16-.36,4.2,4.2,0,0,1,2.1.6,5.43,5.43,0,0,1,1.84,1.77c1,1.57,1.63,4,1.8,7.33a34.18,34.18,0,0,1,0,4c-.05,2.27-.07,3.43-.07,3.48a.71.71,0,0,1-1.41,0c0-.05,0-1.19.07-3.43a34.19,34.19,0,0,0,0-4c-.15-3-.67-5.26-1.59-6.63a3.45,3.45,0,0,0-4.41-1.48,6.24,6.24,0,0,0-2.2,1.48A6.45,6.45,0,0,0,205.14,25.64Z" style="fill:#1d1d1b"/><path d="M229.3,25.85a6.1,6.1,0,0,0-1.23-1.94,6.89,6.89,0,0,0-1.87-1.45,3.68,3.68,0,0,0-4.2.21q-1.91,1.45-2.47,5a11.71,11.71,0,0,0,.35,5.89,4.7,4.7,0,0,0,2,2.58,5.21,5.21,0,0,0,3.14.7,5.79,5.79,0,0,0,3.09-1.16A5.07,5.07,0,0,0,230,33a.68.68,0,0,1,.34-.44.59.59,0,0,1,.53-.07.74.74,0,0,1,.42.35.55.55,0,0,1,.05.51A6.24,6.24,0,0,1,229,36.8a7.32,7.32,0,0,1-3.84,1.46,6.82,6.82,0,0,1-3.95-.91,6,6,0,0,1-2.65-3.28,13.47,13.47,0,0,1-.42-6.64c.47-2.72,1.48-4.69,3-5.89a4.82,4.82,0,0,1,2.86-1,5.36,5.36,0,0,1,2.82.67A7.55,7.55,0,0,1,229.12,23a7.65,7.65,0,0,1,1.52,2.39.72.72,0,0,1-1,.9A.7.7,0,0,1,229.3,25.85Z" style="fill:#1d1d1b"/><path d="M246.34,30.29v0l-12.14-.07a6.84,6.84,0,0,0,1.27,4.49,5.69,5.69,0,0,0,3.39,2.14,6.07,6.07,0,0,0,4.13-.64,6.58,6.58,0,0,0,3-3.38.69.69,0,0,1,.38-.37.53.53,0,0,1,.52,0,.76.76,0,0,1,.39.38.6.6,0,0,1,0,.55,7.64,7.64,0,0,1-3.63,4.09,7.45,7.45,0,0,1-5,.74,6.86,6.86,0,0,1-4.34-2.78,8.31,8.31,0,0,1-1.41-5.72,11.2,11.2,0,0,1,2.36-6.56,6.79,6.79,0,0,1,4.87-2.68A5.77,5.77,0,0,1,245,22.74a11.12,11.12,0,0,1,2.25,6.85.75.75,0,0,1-.19.51.62.62,0,0,1-.48.23A.61.61,0,0,1,246.34,30.29Zm-12-1.44,11.46.07a9,9,0,0,0-2-5.35,4.56,4.56,0,0,0-3.67-1.64,5.55,5.55,0,0,0-3.68,1.94A8.93,8.93,0,0,0,234.35,28.85Z" style="fill:#1d1d1b"/><path d="M249.69,44.33q0-3.6,0-10.83t0-10.83a.71.71,0,0,1,1.41,0V24a7.49,7.49,0,0,1,3-3.14,4.74,4.74,0,0,1,5.18.6,10,10,0,0,1,3.53,5,10.76,10.76,0,0,1,.21,6.66,7,7,0,0,1-2.49,3.8,7.27,7.27,0,0,1-4,1.53,6.55,6.55,0,0,1-3-.49,5.8,5.8,0,0,1-2.44-1.8q0,4.89,0,8.18a.67.67,0,0,1-.21.49.69.69,0,0,1-.5.21.72.72,0,0,1-.7-.7Zm1.48-16.75c0,1.31,0,3.17,0,5.57a.22.22,0,0,1,0,.1,5.1,5.1,0,0,0,2.06,2.93,5.22,5.22,0,0,0,3.25.85,5.71,5.71,0,0,0,3.24-1.24,5.77,5.77,0,0,0,2-3,9.6,9.6,0,0,0-.21-5.85,8.38,8.38,0,0,0-3-4.31,3.48,3.48,0,0,0-3.74-.49q-2.22,1.09-3.56,5.29A1.71,1.71,0,0,1,251.17,27.58Z" style="fill:#1d1d1b"/><path d="M270.14,20.45q0,.91-.08,7.23T270,37.31a.67.67,0,0,1-.21.49.68.68,0,0,1-.5.22.64.64,0,0,1-.49-.22.67.67,0,0,1-.21-.49q0-3.31.09-9.63t.08-7.26c-.65,0-1.33,0-2,0a.6.6,0,0,1-.47-.23.76.76,0,0,1-.2-.51.62.62,0,0,1,.23-.48.79.79,0,0,1,.51-.19l2,.07V15.62a.67.67,0,0,1,.21-.49.67.67,0,0,1,1,0,.67.67,0,0,1,.21.49V19l1.87-.07a.75.75,0,0,1,.51.19.62.62,0,0,1,.23.48.8.8,0,0,1-.19.51.62.62,0,0,1-.48.23Z" style="fill:#1d1d1b"/><path d="M274.8,36.43a.67.67,0,0,1,.21.49.71.71,0,0,1-1.41,0,.67.67,0,0,1,.21-.49.69.69,0,0,1,1,0Z" style="fill:#1d1d1b"/></g></g></g></svg>