<svg xmlns="http://www.w3.org/2000/svg" width="300" viewBox="0 0 1701.17 370.33"><title>Artisans du web spécialistes WordPress</title><g id="52243eeb-f42c-475d-86d2-f7cd1cbe7e7a" data-name="Calque 6"><path d="M190,288.05l.59,41.11h22.12V287.3s16.18-2.67,18.41-4.75l.49-10.68s-3.22-14.91-6-19.27-13.86-21.17-37.34-25.14-44.13-4.14-58.82-.13l5.55,17.4s10.52,22.19,20,28.36c12.85,8.87,25.47,13.62,33.19,13.92C190.12,287.15,190,288.05,190,288.05Z" style="fill:#fff"/><path d="M231.57,270.26c21.7-11.18,35.06-39,38.21-54.69a158.73,158.73,0,0,1-18.66-.69c-13-.94-53.07,2.26-65.93,12.16,0,0,20.88,3.67,30.83,13.76S230.12,260.26,231.57,270.26Z" style="fill:#fff"/><path d="M149.08,223.18c-1.36-2.4-4-4.26-5.4-6.84s-2.32-5.52-4.23-8a26.07,26.07,0,0,1-4.45-8.47c-.87-3-2.09-5.89-3-8.95a39.75,39.75,0,0,1-1.58-9.09c2.43-1.78,6.88-1.91,9.77-2.05,3.22-.15,6.57-.33,10-.22s6.85.64,10.47.45c3.25-.16,6.3.89,9.57,1.34,6.49.88,12.38,2.84,18.48,4.67,5.07,1.52,11.76,4.63,15.75,8.52,3,2.9,6.29,5.64,8.68,9.12a24.41,24.41,0,0,1,3.39,6.19c.73,2.13,2.12,4.09,2.2,6.41-2.92,1.06-6.75,1.5-9.76,2a52.75,52.75,0,0,0-9.35,2.28c-2.9,1-5.76,2.44-8.63,3.61-1.38.56-2.69,1.3-4.08,1.88-2,.84-3,.33-5.1,0-3-.44-5.88-.75-8.92-1.06-2.86-.29-5.8.21-8.67.22s-5.45-1.33-8.45-.88c-2.58.38-6.09,2.35-7.18-1.09-.22-.06-.42,0-.63,0" style="fill:#fff"/><path d="M190,185.33c2.46-2.31,6.7-2.82,9.75-3.83s6.07-2.6,9.16-3.74c6.06-2.23,13.33-4.23,19.83-4.23,6,0,12.08.52,18,.23,2.78-.14,5.84-.29,8.68-.45,3.08-.17,5.82.57,8.65.7a15.27,15.27,0,0,1,0,3.31,27.16,27.16,0,0,1-.86,5.78c-.47,1.51-1.41,2.72-1.78,4.24s-.41,3.34-.94,4.9c-.49,1.41-1.75,2.85-2.41,4.23a37.89,37.89,0,0,1-1.95,4.05c-1.85,2.9-4.13,5.31-5.56,8.46-1.69,3.73-2.9,5.16-7,5.52-3.48.31-7,.44-10.69.44s-7.41,0-11.14.21c-2.62.14-2.05.27-3.38-1.71a14.31,14.31,0,0,1-2-3.61,22.59,22.59,0,0,0-5.09-8.39,49.11,49.11,0,0,0-6.25-5.85c-4.86-3.84-10.32-5.61-15.27-9.2.41-.43.65-1.82,1.24-1.95" style="fill:#fff"/><path d="M215.53,173.51s-.13-18.83-25.57-28.74c-18.23-7.11-31.08-8.28-38-8.37s-8.21-1.24-8.72.4a63,63,0,0,0-1.43,11.59c0,3.34,2.08,16.77,4.47,21.62s3.65,8,4.54,8.8S170,181.55,172.23,182s15.26,3.63,16.48,4,24.12-8.76,24.12-8.76l3.26-.44Z" style="fill:#fff"/><path d="M192.6,144.57c3.9-2.47,21.93-12.09,30.39-12.38s17.65-2.32,21-2.41a87.78,87.78,0,0,1,9.45.65v11.79l-3.15,17L243,171.3l-1.48,2.54-10.09.07-11.43,2-3.86.89-2.67-11.73a92.23,92.23,0,0,0-5.34-7.57c-1.78-2-11.74-9.4-14.13-10.67S192.6,144.57,192.6,144.57Z" style="fill:#fff"/><path d="M215.75,131.93s1.47-8.42-2.12-14.65-10.32-14.37-15-17.47-21-12.39-28.85-11.47-7.35.37-7.35.37a12.87,12.87,0,0,0-2.63,5.35c-.9,3.51-2.2,20.25-2.2,20.25l3.17,13.75,4.12,7.86,7.78,3.33,14.15,4.34,4.79,1.86,6-3.71,10.69-5.82,6.9-1.57Z" style="fill:#fff"/><path d="M197.17,96.65s15.15-10.39,19.17-11.78,16.5-4.41,18.51-4.76a39.39,39.39,0,0,1,5.06-.38,33.6,33.6,0,0,1,1.68,5.74c.44,2.62,1.77,14.14,1.77,14.14l.11,12.65-4.22,10-6.46,8.32-9.8,1.63-7.79,2.16.85-7.57s-.63-6.9-3.74-11.8-7.26-10.22-10.47-12.69-6.58-4.56-6.58-4.56Z" style="fill:#fff"/><path d="M173.47,87.17s-.84-13.12,1.9-18.72,11.46-18,11.46-18l13.31-12,5.28,5.31,18.43,25.22s1.49,6.45,1.49,7.11-.57,6.23-.57,6.23l-12.2,4.52L200.05,94.7l-3.77,3.36-10.47-5.12-10.24-4-2-.42Z" style="fill:#fff"/><path d="M192.51,331.93a.45.45,0,0,1-.36-.14c-1.22-.78-3-2.79-.07-5.18a1.43,1.43,0,0,1,.43-.22H210V285c0-.14-.06-.36.15-.31,1.21-.08,2.44-.13,3.63-.24,1.48-.11,1.73-.16,2.37-.22l1.72-.21a52.58,52.58,0,0,0,6.7-1.29,18.89,18.89,0,0,0,2.93-1.05,7.75,7.75,0,0,0,1.13-.62,1.3,1.3,0,0,1,.29-.25,13.65,13.65,0,0,0,.38-1.5c.08-.66.21-1.29.24-2a30.14,30.14,0,0,0,.08-4.15,45.55,45.55,0,0,0-1.14-8.37,49,49,0,0,0-2.72-8,42.8,42.8,0,0,0-4.23-7.3,45,45,0,0,0-12.23-11.59,60,60,0,0,0-15.66-7l-2.07-.64-2.12-.49c-1.42-.31-2.82-.69-4.25-.94-2.89-.45-5.75-1-8.68-1.21-1.46-.13-2.91-.32-4.37-.39l-4.4-.18c-2.93-.2-5.89,0-8.83,0s-5.9.32-8.85.47-5.88.6-8.83.89c-1.47.13-2.94.38-4.4.6l-3.85.57s0,0,0,0l.89,3c3.39,11.16,8.64,21.78,16.21,30.5a62.63,62.63,0,0,0,6,6.16c1,1,2.24,1.81,3.34,2.72a32.82,32.82,0,0,0,3.48,2.53l3.64,2.32,3.82,2a63.31,63.31,0,0,0,8,3.21,56.35,56.35,0,0,0,8.31,2.06c.78.09,1,.21,3,.35l2.29.17.57,0,.28,0a.73.73,0,0,1,0,.26l0,1.12.08,6.32.15,12.07.05,4.31s-.19,2.86-.44,6.49c-.2,2.48-.47,5.39-.79,7.86-1.06,10-2.33,6.05-3.07-.16-.06.34-.39-3.7-.69-7.65-.27-3.63-.54-7.2-.54-7.2l-.05-4.22-.18-14.11-1.85-.27c-1.52-.3-3-.55-4.52-1s-3-.75-4.41-1.28-2.92-.94-4.31-1.58-2.85-1.12-4.2-1.85l-4.07-2.12c-1.31-.78-2.59-1.63-3.88-2.45-.64-.42-1.31-.79-1.92-1.26l-1.8-1.41c-1.2-.95-2.44-1.85-3.59-2.86l-3.31-3.16L147.79,269l-1.48-1.74-2.95-3.49c-7.58-9.59-12.57-20.91-15.67-32.49l-1.19-4-.62-2.1c-.07-.11,0-.11.14-.12l.27,0,.54-.08,1.09-.16,6.48-1,4.4-.66,4.43-.48c3-.33,5.91-.65,8.89-.78l4.46-.28c1.49-.08,3-.05,4.48-.09,11.91-.15,24.05.83,35.66,4.58A65.33,65.33,0,0,1,213.27,234a50.17,50.17,0,0,1,13.21,13,48.87,48.87,0,0,1,7.47,17,51.15,51.15,0,0,1,1.2,9.24,35.85,35.85,0,0,1-.11,4.74c0,.79-.2,1.62-.31,2.43a13.61,13.61,0,0,1-.8,2.78,7,7,0,0,1-1,1.44,9,9,0,0,1-1.08,1,13,13,0,0,1-2,1.15,23.33,23.33,0,0,1-3.83,1.38,57,57,0,0,1-7.44,1.44l-1.84.23-1.23.13v41.85c0,.07,0,.17,0,.22h-23Z" style="fill:#000100"/><path d="M189.37,227.57a.47.47,0,0,1-.38,0,3.89,3.89,0,0,1-2.22-1.16c-.61-.69-.86-1.82,0-3.54a1.72,1.72,0,0,1,.32-.39c2.91-1.28,5.85-2.36,8.82-3.35a164.66,164.66,0,0,1,66.26-7.09l4.16.46,3.92.42,2,.22.26,0c.06,0,.24,0,.16.09l-.12.5-.24,1-1.52,6.32-.5,2.06c-.2.69-.44,1.35-.65,2l-1.34,4c-.44,1.36-1.07,2.63-1.6,4a78.37,78.37,0,0,1-3.68,7.68,87.72,87.72,0,0,1-9.59,14l-.6.74-.24.25-.46.52-.94,1c-.63.69-1.24,1.39-1.89,2.06l-1.11.95c-.7.58-1.64,1.45-2.82,2.33a58.66,58.66,0,0,1-8.06,5.29c-4.52,2.49-6.23,2.54-6,1.84s2.09-2.38,4.35-4.43c-.29.13,2.51-2.19,5.1-4.83l1.91-1.95c.58-.65,1.13-1.26,1.59-1.79.94-1,1.54-1.76,1.54-1.76l1.73-1.9.87-.95.21-.24.52-.64,1.23-1.53c1.7-2,3.12-4.2,4.62-6.33,1.34-2.24,2.8-4.41,3.92-6.78a82.14,82.14,0,0,0,5.87-14.5c.38-1.25.63-2.54,1-3.8l.1-.44h0l-5.3-.58a170.19,170.19,0,0,0-31.84.31,151.11,151.11,0,0,0-31.07,6.64C194.87,225.35,192.06,226.39,189.37,227.57Z" style="fill:#000100"/><path d="M151.35,221.22c.09.1.12.13.12.35A3.76,3.76,0,0,1,151,224c-.49.78-1.49,1.35-3.4,1a1.6,1.6,0,0,1-.46-.2,83,83,0,0,1-5.74-7.55c-6.24-9.14-11.11-19.51-12.83-30.76-.12-.7-.16-1.41-.24-2.12l-.37-3.76-.1-1,0-.25c.05,0,.15,0,.23-.07l.49-.13,2-.5,1.93-.49,1.11-.24a72.25,72.25,0,0,1,8.32-1.22,108.15,108.15,0,0,1,16.59-.17,105.12,105.12,0,0,1,32.35,7.08,69.32,69.32,0,0,1,14.74,8.11l2.7,2.13,2.13,1.92a43,43,0,0,1,3.31,4.07,34.52,34.52,0,0,1,4.57,8.72,18.24,18.24,0,0,1,1.21,5.12c.06,1-.15,1.29-.48,1.13-.73-.32-1.9-2.56-3.55-5,.12.29-1.75-2.76-4.11-5.47a45,45,0,0,0-5.25-5c-.63-.54-1.21-1.14-1.89-1.64l-1-.78-.87-.69-1.55-1.08a63.14,63.14,0,0,0-13.52-7A101,101,0,0,0,157.06,182a98.42,98.42,0,0,0-15.46.3,62.46,62.46,0,0,0-7.53,1.18l-.26.05h0l.08.8a13.12,13.12,0,0,0,.25,1.87c1.56,10,6,19.47,11.83,27.95A81,81,0,0,0,151.35,221.22Z" style="fill:#000100"/><path d="M192.61,187.26a.47.47,0,0,1-.37,0,3.91,3.91,0,0,1-2.3-1c-.68-.62-1.05-1.72-.26-3.53a1.36,1.36,0,0,1,.29-.41,80.8,80.8,0,0,1,8.67-3.93c15.64-6,32.28-8.39,48.79-8.64,2.07,0,4.13.06,6.2.08s4.13.12,6.19.27l3.19.22,3,.19,1.51.1.38,0c.12,0,.31,0,.24.15l0,.76-.25,5.39c0,1.08-.26,2.14-.39,3.21a52.72,52.72,0,0,1-3.38,12.36l-.39,1-.29.65-.58,1.28c-.39.86-.78,1.71-1.23,2.54,0,0-1.09,1.91-2.82,4.3a57.1,57.1,0,0,1-6.29,7.33c-3.65,3.63-5.26,4.18-5.24,3.44s1.35-2.88,2.95-5.48c-.24.21,1.81-2.8,3.57-6a73.35,73.35,0,0,0,3.23-6.66c.4-.76.71-1.54,1.07-2.31l.53-1.16.85-2.21a46.32,46.32,0,0,0,2.72-11c.05-.47.16-.93.17-1.4l0-.7v-.33h0s0,0,0,0l-3.92-.26c-2-.17-3.93-.17-5.9-.21s-3.93-.13-5.9,0c-15.7.27-31.47,2.67-46,8.25A71.59,71.59,0,0,0,192.61,187.26Z" style="fill:#000100"/><path d="M152.2,175.59c.07.11.09.14.06.36a3.91,3.91,0,0,1-.87,2.34c-.6.7-1.69,1.12-3.52.42a2.07,2.07,0,0,1-.43-.28,65.61,65.61,0,0,1-4.23-8.63c-3.5-8.85-5.29-18.7-3.72-28.38a12.11,12.11,0,0,1,.32-1.8l.51-2.23.77-3.34c1.1,0,2.25,0,3.36,0l7.49,0c1.17,0,2.33,0,3.5,0l3.51.32c2.33.22,4.67.4,7,.67,9.29,1.47,18.55,4,27,8.58l3.13,1.77a31.85,31.85,0,0,1,3,2l2.92,2.12,2.69,2.44,1.39,1.27a9.54,9.54,0,0,1,1,1l1.89,2.14.91,1.18,2,3.19a41.57,41.57,0,0,1,2.18,4.38,36.86,36.86,0,0,1,1.58,4.68c1.35,5.05.74,6.73.18,6.27s-1.59-2.68-3.09-5.29c0,.15-.32-.58-1-1.7-.34-.56-.69-1.25-1.15-1.95l-1.5-2.18c-1-1.49-2.29-2.83-3.12-3.9s-1.6-1.63-1.6-1.63l-1.66-1.87c-.28-.32-.62-.58-.92-.87l-1.92-1.75L198.57,154l-1.29-.95-2.6-1.88a20,20,0,0,0-2.73-1.68l-2.81-1.59c-7.67-3.94-16.21-6.09-24.85-7.41l-6.57-.6c-1.09-.09-2.18-.24-3.28-.27h-3.32l-5.6,0c-.05,0,0,0,0,0a20.4,20.4,0,0,0-.58,3.1c-1.3,8.35.28,17.06,3.44,25A59.47,59.47,0,0,0,152.2,175.59Z" style="fill:#000100"/><path d="M194.43,146a.33.33,0,0,1-.31.07,3.17,3.17,0,0,1-1-.18c-.41-.08-.66-.36-1.15-.46a1.81,1.81,0,0,1-1.24-.82,3.83,3.83,0,0,1,.09-2.53,2,2,0,0,1,.28-.5,52.77,52.77,0,0,1,8.51-4.78,114.94,114.94,0,0,1,20.05-7,103.5,103.5,0,0,1,21.06-3.14c1.79-.07,3.58-.1,5.37,0,.89,0,1.79,0,2.68.1l1.34.08,2.22.21,2.38.23.6.06c.13,0,.11.11.12.21l0,.33.12,1.28.35,4c.23,1.79.12,3.61.18,5.41s-.16,3.61-.27,5.42c-.26,1.78-.37,3.6-.77,5.36l-.32,1.66c-.1.46-.17.93-.3,1.38l-.7,2.74s-.16.53-.52,1.38-.79,2.07-1.46,3.4a44.76,44.76,0,0,1-5,8.33c-3.12,4.15-4.74,4.81-4.77,4.07s1-3,2.21-5.76c-.21.24,1.39-3,2.53-6.47.56-1.75,1.08-3.51,1.39-4.86a23,23,0,0,0,.5-2.26c.2-.82.43-1.63.62-2.46l.63-3.28a60.6,60.6,0,0,0,.71-9.71l0-2.44c0-.81-.14-1.62-.2-2.43l0-.24h0l-.39,0-2.27-.13c-.82,0-1.64,0-2.46-.08-1.64,0-3.28,0-4.93.1a106.93,106.93,0,0,0-38.33,9.63A47.66,47.66,0,0,0,194.43,146Z" style="fill:#000100"/><path d="M166.89,134.74a.43.43,0,0,1,.05.36,3.94,3.94,0,0,1-.85,2.34c-.59.71-1.67,1.15-3.51.45a1.5,1.5,0,0,1-.43-.27,54.43,54.43,0,0,1-4.21-8.7,56.56,56.56,0,0,1-3.35-13.41A49.54,49.54,0,0,1,155,101.6l.75-3.41a33.05,33.05,0,0,1,1-3.34A26.62,26.62,0,0,1,158,91.59l1.61-3.44c.51-.89.64-2.25,2-2.11l2.57-.45a33,33,0,0,1,3.57-.28,37.75,37.75,0,0,1,7.06.45,50.32,50.32,0,0,1,13.25,4.08,60.92,60.92,0,0,1,11.78,7.09,58.26,58.26,0,0,1,9.91,9.57c.16.2.42.51.49.61l.22.29.43.57.85,1.15c.53.8,1.08,1.57,1.58,2.39a38.08,38.08,0,0,1,2.15,4.83,28.5,28.5,0,0,1,1.81,9.78,13.93,13.93,0,0,1-.73,5.26c-.34.93-.66,1.13-.9.84a5.15,5.15,0,0,1-.61-2.1c-.23-1.05-.45-2.38-.82-3.8A41.47,41.47,0,0,0,212,120a38.39,38.39,0,0,0-3.71-6.14c-.48-.68-.9-1.4-1.42-2.06l-.75-1-.19-.25s-.27-.35-.41-.51l-1-1.17a54.47,54.47,0,0,0-9-8.3,50.23,50.23,0,0,0-22.32-9.45,33.85,33.85,0,0,0-5.94-.26,28.15,28.15,0,0,0-2.91.33c-.09,0,0,0,0,0l-.15.32-1.3,2.75c-.38.94-.66,1.91-1,2.87a43.39,43.39,0,0,0-1.5,5.86,46.65,46.65,0,0,0-.28,12.1,51.45,51.45,0,0,0,3,11.84A50.74,50.74,0,0,0,166.89,134.74Z" style="fill:#000100"/><path d="M199,98.48a.44.44,0,0,1-.36.09,3.73,3.73,0,0,1-2.43-.67c-.73-.56-1.2-1.61-.69-3.46a1.74,1.74,0,0,1,.23-.45c2.56-1.84,5.18-3.55,7.86-5.18a99.39,99.39,0,0,1,16.55-8.16,64.75,64.75,0,0,1,9-2.65l2.32-.47c.78-.13,1.59-.19,2.38-.29s1.58-.22,2.39-.23l3.21,0,2.24,0c.24-.07.25.17.31.34l.16.53.32,1.07,1,3.18a38.74,38.74,0,0,1,1.2,4.5c.3,1.53.73,3,.93,4.58s.43,3.09.6,4.65l.25,4.69-.12,4.71-.3,3c-.08.94-.24,1.88-.41,2.81a43.17,43.17,0,0,1-5.87,13.74c-2.92,4.33-4.58,5-4.61,4.26s.94-3,2-5.8c-.21.25,1.2-3,2-6.6a25.57,25.57,0,0,0,.56-2.62c.13-.84.33-1.61.38-2.31.16-1.36.26-2.28.26-2.28.18-.82.21-1.66.31-2.5s.22-1.44.24-3.09a59,59,0,0,0-.25-8.4l-.56-4.18-.9-4.14c-.25-1.4-.78-2.73-1.16-4.09l-.14-.5h-.78c-.34,0-.67,0-1,0l-2,.24a36.08,36.08,0,0,0-4.09.71,62.19,62.19,0,0,0-8.07,2.43,96.6,96.6,0,0,0-15.35,7.62C204,95.1,201.45,96.74,199,98.48Z" style="fill:#000100"/><path d="M175.78,85.8c0,.12,0,.16-.09.33A4.32,4.32,0,0,1,174,87.86c-.79.47-2,.52-3.41-1a1.74,1.74,0,0,1-.28-.46,34,34,0,0,1,.52-10,55.5,55.5,0,0,1,8.85-20.27A93.3,93.3,0,0,1,194.13,40L200,34.87l.24-.22s.09-.1.12-.08l.12.12.45.48.9,1L203.6,38l2,2.14c2.47,2.56,4.78,5.29,7.13,8l3.4,4.17,3.25,4.33,1.72,2.53c.51.78,1.07,1.52,1.53,2.35,0,0,.24.49.66,1.31a36.62,36.62,0,0,1,1.53,3.39A25.17,25.17,0,0,1,227,76a8.56,8.56,0,0,1-1.44,5.29c-.63.78-1,.88-1.14.54a9.23,9.23,0,0,1,0-2.12,15.69,15.69,0,0,0-.45-3.55,17.8,17.8,0,0,1-.55-1.77c-.2-.59-.5-1.28-.78-2s-.76-1.54-1.14-2.33c-.89-1.57-1.79-3.14-2.61-4.28l-1.31-1.91-1.43-2.14c-.53-.75-.73-1.17-2-2.8-2-2.74-4.15-5.36-6.33-8s-4.48-5.14-6.87-7.61l-1-1.07s0,0,0,0l-2.62,2.3A88.48,88.48,0,0,0,184,59.59a49.86,49.86,0,0,0-7.8,17.9A29.29,29.29,0,0,0,175.78,85.8Z" style="fill:#000100"/><path d="M129.41,227.33s81.56,31.47,83.34,60,.89,41.86.89,41.86H190l.23-42.08s-25.63-4.35-34.73-13.62-19.33-22.69-22.8-35.71-3.4-7-3.4-7Z" style="fill:#56c3e8;opacity:0.2"/><path d="M231.57,270.26,247.7,257.7l12.56-17,6.59-14.95,2.76-8.78.17-1.39s-42,7.32-48.69,30.41c.79,1.53,1.8,1.7,1.8,1.7l7.67,15.58Z" style="fill:#56c3e8;opacity:0.2"/><path d="M150,224.52l-11.71-17.87-5.15-12.4-2.7-12.44s60.07,22,67.2,39.47c-6.62,2.85-10.7,4.73-10.7,4.73l-17.8-1.61Z" style="fill:#56c3e8;opacity:0.2"/><path d="M150.86,178.65,143.66,161l-.37-24.17s48.3,26.35,49.09,45-2.78,4-2.78,4l-13.87-4Z" style="fill:#56c3e8;opacity:0.2"/><path d="M217.65,218.13l29.9-4.74,11.57-16.45,7.66-24.47S223,179.6,215.19,206.85C218.51,214.32,217.65,218.13,217.65,218.13Z" style="fill:#56c3e8;opacity:0.2"/><path d="M215.19,176.26l27.76-5,7.3-12.07,3.15-24.88-.53-4.58S213,147.05,211.68,165.08A58.86,58.86,0,0,1,215.19,176.26Z" style="fill:#56c3e8;opacity:0.2"/><path d="M164,136.8l-6.4-19.49,1-19.25,3.8-9.35s40.07,26,32.82,51.06c-.68,2.37-5.3,5-5.3,5l-8.67-3.67L171.6,139Z" style="fill:#56c3e8;opacity:0.2"/><path d="M221.07,132.49l4.27-.69,8.45-2.52,4.08-5.26,6.5-15.13L242,88.71l-2.13-9S215.2,96.25,215.2,122.31C215.2,134.35,221.07,132.49,221.07,132.49Z" style="fill:#56c3e8;opacity:0.2"/><path d="M200.58,93.46l8.55-4s9.14-4.56,9.6-4.69,6.61-4.44,6.61-4.44L223.85,69.5l-5.12-10.92L211,51,198.21,37.5s16.12,34.89-2.07,57.89C194,98.06,200.58,93.46,200.58,93.46Z" style="fill:#56c3e8;opacity:0.2"/><path d="M166.46,331C99.82,316,49.88,256.28,49.88,185.17S99.82,54.38,166.46,39.36V30.88C95.21,46,41.59,109.46,41.59,185.17S95.21,324.29,166.46,339.46Z" style="fill:#000100"/><path d="M230.12,30.45V38.9c67.7,14.23,118.68,74.41,118.68,146.27s-51,132-118.68,146.26v8.46c72.3-14.36,127-78.27,127-154.72S302.42,44.8,230.12,30.45Z" style="fill:#000100"/></g><g id="52080452-4676-4155-9afc-64f17411d7e0" data-name="Cereal Concept"><text transform="translate(459.05 246.02)" style="font-size:200.00440979003906px;fill:#1d1d1b;font-family:Simplicity, Simplicity">Cereal Concept.</text></g></svg>
