<svg xmlns="http://www.w3.org/2000/svg" viewBox="0 0 826.99 841.89"><defs><style>.cls-1{fill:#fff;}.cls-2{fill:#000100;}.cls-3{fill:#56c3e8;opacity:0.2;}.cls-4{fill:#1d1d1b;}</style></defs><title>Plan de travail 1</title><g id="Calque_6" data-name="Calque 6"><path class="cls-1" d="M397.66,540.73l1,69.49H436V539.47s27.35-4.52,31.11-8l.83-18.06s-5.43-25.19-10.15-32.56S434.4,445,394.73,438.33s-74.59-7-99.43-.21l9.39,29.4s17.78,37.5,33.87,47.93c21.72,15,43.05,23,56.09,23.52C397.91,539.22,397.66,540.73,397.66,540.73Z"/><path class="cls-1" d="M468,510.66c36.68-18.89,59.25-65.84,64.57-92.43-14.64.13-14.66,0-31.54-1.17-21.95-1.59-89.7,3.82-111.43,20.56,0,0,35.3,6.2,52.11,23.26S465.52,493.77,468,510.66Z"/><path class="cls-1" d="M328.54,431.1c-2.28-4.06-6.79-7.21-9.12-11.57s-3.91-9.32-7.15-13.55a44.44,44.44,0,0,1-7.52-14.31c-1.46-5.08-3.54-10-5.09-15.14A66.94,66.94,0,0,1,297,361.17c4.11-3,11.62-3.22,16.5-3.46,5.45-.26,11.11-.56,16.93-.37,6,.2,11.57,1.07,17.69.76,5.5-.27,10.65,1.5,16.17,2.25,11,1.49,20.94,4.82,31.24,7.91,8.56,2.56,19.89,7.82,26.62,14.39,5,4.91,10.63,9.54,14.67,15.42,2.47,3.59,4.39,6.52,5.74,10.46,1.23,3.6,3.58,6.91,3.71,10.84-4.94,1.78-11.41,2.54-16.5,3.37A90.79,90.79,0,0,0,414,426.59c-4.92,1.74-9.75,4.14-14.6,6.11-2.34.94-4.55,2.2-6.89,3.18-3.33,1.41-5,.55-8.63,0-5.07-.74-9.93-1.27-15.06-1.79-4.84-.49-9.81.36-14.67.36-5.07,0-9.21-2.24-14.28-1.48-4.35.65-10.28,4-12.13-1.84-.36-.11-.7,0-1.06-.06"/><path class="cls-1" d="M397.78,367.13c4.15-3.91,11.32-4.78,16.48-6.48s10.25-4.39,15.49-6.32c10.23-3.77,22.52-7.16,33.51-7.15,10.09,0,20.41.88,30.49.39,4.69-.23,9.86-.5,14.67-.76,5.21-.29,9.83,1,14.62,1.18a26.9,26.9,0,0,1,0,5.6,46.28,46.28,0,0,1-1.46,9.76c-.8,2.56-2.38,4.6-3,7.18s-.69,5.63-1.59,8.27c-.82,2.38-3,4.82-4.07,7.14a64.74,64.74,0,0,1-3.29,6.85c-3.13,4.91-7,9-9.41,14.31-2.85,6.3-4.89,8.72-11.76,9.32-5.88.52-11.86.76-18.06.76s-12.52,0-18.84.35c-4.42.23-3.46.44-5.7-2.9a23.88,23.88,0,0,1-3.31-6.1,38.3,38.3,0,0,0-8.62-14.18,82.34,82.34,0,0,0-10.56-9.89C415.18,378,406,375,397.58,368.9c.69-.72,1.1-3.06,2.09-3.28"/><path class="cls-1" d="M440.86,347.15s-.22-31.84-43.21-48.59c-30.82-12-52.53-14-64.15-14.15s-13.88-2.08-14.74.68-2.41,13.94-2.41,19.59,3.51,28.36,7.54,36.54,6.18,13.49,7.69,14.87,32.34,4.64,36.1,5.39,25.79,6.13,27.85,6.78,40.76-14.8,40.76-14.8l5.52-.76Z"/><path class="cls-1" d="M402.11,298.24c6.59-4.18,37.07-20.44,51.37-20.94s29.83-3.91,35.42-4.07,16,1.11,16,1.11v19.91L499.55,323,487.21,343.4l-2.5,4.3-17.06.11-19.32,3.39-6.52,1.5-4.51-19.82s-6-9.4-9-12.79-19.83-15.89-23.87-18S402.11,298.24,402.11,298.24Z"/><path class="cls-1" d="M441.24,276.87s2.48-14.24-3.59-24.76-17.45-24.29-25.34-29.53-35.45-20.94-48.75-19.39-12.44.62-12.44.62a22,22,0,0,0-4.43,9.06c-1.52,5.93-3.72,34.21-3.72,34.21l5.36,23.25,7,13.28,13.14,5.62,23.93,7.34,8.08,3.14,10.13-6.26,18.07-9.84L440.31,281Z"/><path class="cls-1" d="M409.82,217.24s25.61-17.56,32.41-19.91,27.9-7.46,31.29-8.05a68.52,68.52,0,0,1,8.54-.64,57.12,57.12,0,0,1,2.85,9.7c.75,4.43,3,23.9,3,23.9l.19,21.38L481,260.49,470,274.56l-16.55,2.74L440.31,281l1.43-12.79s-1.06-11.67-6.33-20S423.14,231,417.73,226.77s-11.12-7.71-11.12-7.71Z"/><path class="cls-1" d="M369.77,201.21S368.36,179,373,169.58s19.38-30.49,19.38-30.49l22.48-20.33,8.93,9,31.16,42.61s2.51,10.92,2.51,12-.95,10.54-.95,10.54l-20.64,7.63L414.7,214l-6.38,5.67L390.63,211l-17.31-6.76-3.4-.71Z"/><path class="cls-2" d="M402,614.9a.74.74,0,0,1-.6-.23c-2.07-1.32-5.05-4.72-.13-8.75a2.27,2.27,0,0,1,.73-.38h29.54v-70c0-.24-.1-.61.27-.52,2-.13,4.12-.23,6.13-.41,2.5-.19,2.91-.27,4-.37l2.91-.36a89.6,89.6,0,0,0,11.32-2.18,31.91,31.91,0,0,0,5-1.77,13.58,13.58,0,0,0,1.9-1.06c.48-.45.51-.39.49-.42a21.37,21.37,0,0,0,.65-2.53c.14-1.11.35-2.18.4-3.35a52.8,52.8,0,0,0,.14-7,77.82,77.82,0,0,0-1.92-14.13,83.58,83.58,0,0,0-4.6-13.53A73.16,73.16,0,0,0,451,475.6,76,76,0,0,0,430.31,456a101.89,101.89,0,0,0-26.46-11.84l-3.5-1.07-3.58-.84c-2.4-.52-4.77-1.17-7.2-1.59-4.87-.75-9.7-1.69-14.65-2-2.47-.21-4.92-.54-7.4-.66l-7.44-.3c-4.95-.34-9.95,0-14.92,0s-10,.55-15,.8-9.95,1-14.92,1.51c-2.5.22-5,.64-7.45,1l-6.51,1s-.06,0,0,.07l1.5,5.09c5.72,18.87,14.61,36.82,27.39,51.55,3,3.89,6.75,7,10.19,10.43,1.73,1.72,3.79,3.05,5.66,4.59a53.47,53.47,0,0,0,5.88,4.28l6.15,3.91,6.46,3.36A104.57,104.57,0,0,0,378,530.64a94.57,94.57,0,0,0,14.05,3.49c1.31.15,1.75.35,5,.6l3.86.28,1,.06.48,0a2.12,2.12,0,0,1,0,.45l0,1.9.13,10.66.26,20.4.08,7.29s-.32,4.83-.74,11c-.35,4.19-.8,9.11-1.34,13.29-1.78,17-3.94,10.23-5.18-.26-.1.57-.66-6.26-1.17-12.93l-.91-12.18-.09-7.13-.3-23.84-3.14-.46c-2.55-.52-5.14-.93-7.63-1.64s-5-1.27-7.46-2.17a77.21,77.21,0,0,1-7.28-2.67c-2.36-1-4.82-1.9-7.1-3.12l-6.88-3.59c-2.21-1.32-4.37-2.76-6.55-4.13-1.08-.72-2.21-1.35-3.24-2.14l-3.06-2.38c-2-1.61-4.12-3.13-6.05-4.83l-5.6-5.35-2.79-2.68-2.5-2.95-5-5.9c-12.8-16.21-21.23-35.34-26.47-54.9l-2-6.82-1.05-3.54c-.12-.2.07-.2.23-.21l.46-.07L291,434l1.83-.27,11-1.64,7.45-1.1,7.49-.82c5-.55,10-1.1,15-1.33l7.54-.46c2.51-.15,5-.09,7.56-.15,20.14-.25,40.65,1.4,60.29,7.74a110.1,110.1,0,0,1,28,13.33,85.32,85.32,0,0,1,22.34,21.93A83,83,0,0,1,472,500a84.36,84.36,0,0,1,2,15.62,61.51,61.51,0,0,1-.19,8c-.07,1.33-.33,2.73-.52,4.11A23.65,23.65,0,0,1,472,532.4a11.74,11.74,0,0,1-1.65,2.44,15,15,0,0,1-1.83,1.64,22.8,22.8,0,0,1-3.39,1.94,41.33,41.33,0,0,1-6.48,2.34A96.63,96.63,0,0,1,446,543.19l-3.12.38-2.07.22v70.73a1.5,1.5,0,0,1,0,.38H402Z"/><path class="cls-2" d="M396.64,438.52a.73.73,0,0,1-.63,0,6.36,6.36,0,0,1-3.75-2c-1-1.17-1.47-3.08.05-6a2.63,2.63,0,0,1,.55-.66c4.93-2.16,9.89-4,14.91-5.67,36.06-11.87,74.41-15.4,112-12l7,.76,6.61.72,3.44.37.44,0c.1.05.39,0,.27.15l-.2.85-.41,1.68-2.57,10.68-.85,3.5c-.33,1.15-.73,2.28-1.1,3.42l-2.26,6.83c-.74,2.29-1.81,4.45-2.7,6.68a133,133,0,0,1-6.22,13A147.22,147.22,0,0,1,505,484.7L504,486l-.39.44-.8.87L501.25,489c-1.07,1.15-2.1,2.34-3.19,3.47l-1.87,1.6c-1.2,1-2.78,2.46-4.78,3.94a99.73,99.73,0,0,1-13.62,9c-7.63,4.2-10.52,4.29-10.12,3.11s3.53-4,7.35-7.5c-.5.23,4.23-3.7,8.62-8.16,1.1-1.11,2.2-2.24,3.23-3.29l2.69-3c1.58-1.76,2.61-3,2.61-3l2.91-3.21,1.47-1.61.36-.41.88-1.08,2.08-2.58c2.87-3.37,5.26-7.1,7.81-10.7,2.25-3.79,4.73-7.46,6.62-11.46,4.25-7.75,7.24-16.1,9.92-24.51.65-2.11,1.07-4.28,1.62-6.42l.18-.75h0s0,0,0,0l-8.95-1a288,288,0,0,0-53.82.52,255.6,255.6,0,0,0-52.51,11.23C406,434.76,401.19,436.52,396.64,438.52Z"/><path class="cls-2" d="M332.39,427.78a.75.75,0,0,1,.21.59,6.42,6.42,0,0,1-.79,4.17c-.82,1.33-2.52,2.29-5.74,1.68a2.43,2.43,0,0,1-.78-.34,142.9,142.9,0,0,1-9.71-12.75c-10.55-15.46-18.78-33-21.68-52-.2-1.18-.27-2.39-.4-3.58l-.63-6.36-.17-1.7,0-.42a1.61,1.61,0,0,1,.39-.12l.83-.22,3.3-.85,3.26-.83,1.88-.4a119.59,119.59,0,0,1,14.05-2.06,181.37,181.37,0,0,1,28.06-.29c18.6,1.27,37.15,4.88,54.66,12A117.25,117.25,0,0,1,424,378l4.57,3.61,3.59,3.24a69.93,69.93,0,0,1,5.59,6.88,57.35,57.35,0,0,1,7.73,14.73,30.11,30.11,0,0,1,2,8.65c.1,1.66-.24,2.19-.81,1.92-1.23-.54-3.2-4.32-6-8.53.2.49-3-4.66-6.94-9.23a75,75,0,0,0-8.89-8.42c-1.06-.92-2-1.94-3.19-2.78L420,386.72l-1.47-1.16L416,383.74a106.78,106.78,0,0,0-22.85-11.81A170.65,170.65,0,0,0,342,361.53a166.24,166.24,0,0,0-26.13.5,108.85,108.85,0,0,0-12.73,2l-.43.1h0l.13,1.36a26.18,26.18,0,0,0,.43,3.15c2.65,16.84,10.23,32.91,20,47.23A131.6,131.6,0,0,0,332.39,427.78Z"/><path class="cls-2" d="M402.12,370.37a.71.71,0,0,1-.62.07,6.54,6.54,0,0,1-3.88-1.64c-1.15-1.06-1.78-2.92-.46-6a3,3,0,0,1,.5-.7,135.91,135.91,0,0,1,14.66-6.64c26.43-10.14,54.55-14.19,82.46-14.6,3.49,0,7,.09,10.48.14s7,.19,10.45.46l5.41.36,5.1.33,2.56.17.63,0c.2,0,.52-.05.41.26l-.06,1.29-.42,9.1c-.05,1.83-.44,3.62-.65,5.43A89.79,89.79,0,0,1,523,379.35l-.66,1.71-.49,1.08-1,2.17c-.65,1.45-1.31,2.9-2.06,4.29,0,0-1.85,3.23-4.78,7.27a95.41,95.41,0,0,1-10.63,12.39c-6.16,6.14-8.88,7.06-8.85,5.81s2.28-4.86,5-9.26c-.41.36,3.07-4.73,6-10.22A123.72,123.72,0,0,0,511,383.32c.67-1.27,1.2-2.6,1.81-3.9l.89-1.95,1.44-3.74a78.29,78.29,0,0,0,4.59-18.56c.09-.78.27-1.57.29-2.36l0-1.18,0-.56h0s0,.07,0,.05l-6.62-.43c-3.32-.29-6.65-.3-10-.36s-6.65-.21-10-.07c-26.53.46-53.2,4.51-77.79,13.94A127.85,127.85,0,0,0,402.12,370.37Z"/><path class="cls-2" d="M333.83,350.65a.74.74,0,0,1,.09.61,6.53,6.53,0,0,1-1.47,3.95c-1,1.19-2.85,1.9-5.94.71a2.76,2.76,0,0,1-.73-.47,110.45,110.45,0,0,1-7.16-14.57c-5.91-15-8.93-31.61-6.27-48a21.13,21.13,0,0,1,.52-3.05l.87-3.76,1.3-5.66c1.87-.05,3.8,0,5.69,0l12.65.05c2,0,3.95,0,5.92.07l5.93.54c3.95.38,7.9.69,11.84,1.13,15.71,2.49,31.36,6.77,45.62,14.51l5.29,3a53.17,53.17,0,0,1,5,3.45l4.93,3.58,4.54,4.11,2.35,2.16a17.23,17.23,0,0,1,1.66,1.75l3.2,3.61,1.53,2,3.3,5.4a69.7,69.7,0,0,1,3.68,7.39,62.47,62.47,0,0,1,2.67,7.91c2.28,8.54,1.26,11.39.3,10.6s-2.69-4.53-5.21-8.94c.05.26-.54-1-1.7-2.87-.57-.95-1.17-2.11-1.94-3.3s-1.67-2.42-2.54-3.68c-1.72-2.52-3.86-4.78-5.26-6.59-1.59-1.69-2.72-2.75-2.72-2.75L419,320.36c-.45-.53-1-1-1.54-1.45l-3.25-3-2-1.82-2.19-1.6-4.38-3.18A35.16,35.16,0,0,0,401,306.5l-4.75-2.67c-13-6.67-27.4-10.31-42-12.53l-11.09-1c-1.86-.14-3.7-.4-5.56-.45H332l-9.47,0c-.09,0,0-.06-.06,0a34.68,34.68,0,0,0-1,5.25c-2.19,14.12.48,28.83,5.81,42.32A99.42,99.42,0,0,0,333.83,350.65Z"/><path class="cls-2" d="M405.2,300.6a.57.57,0,0,1-.53.11,5.51,5.51,0,0,1-1.71-.3c-.69-.13-1.1-.6-1.94-.79a3,3,0,0,1-2.09-1.37,6.43,6.43,0,0,1,.16-4.28,2.8,2.8,0,0,1,.47-.85,87.55,87.55,0,0,1,14.37-8.07,194.82,194.82,0,0,1,33.9-11.89,174.51,174.51,0,0,1,35.59-5.3c3-.12,6-.17,9.07-.08,1.51,0,3,.08,4.54.19l2.27.13,3.75.35,4,.39,1,.1c.23-.05.19.18.21.36l0,.54.19,2.18.6,6.78c.38,3,.19,6.09.3,9.14s-.27,6.1-.46,9.15c-.44,3-.62,6.09-1.3,9.07l-.54,2.8c-.16.78-.28,1.57-.5,2.34l-1.19,4.62s-.27.89-.88,2.34-1.32,3.5-2.47,5.75a74.67,74.67,0,0,1-8.47,14.08c-5.28,7-8,8.12-8.07,6.87s1.74-5,3.74-9.73c-.37.41,2.35-5.05,4.27-10.94.95-3,1.83-5.93,2.34-8.22a35.28,35.28,0,0,0,.85-3.81c.34-1.39.74-2.76,1.05-4.15l1.07-5.55a102.39,102.39,0,0,0,1.2-16.41L500,282c-.05-1.38-.22-2.74-.33-4.11l0-.41h0l-.66-.06-3.84-.23c-1.38-.08-2.77-.07-4.16-.12-2.77,0-5.55,0-8.33.16a180.65,180.65,0,0,0-64.78,16.29A79.93,79.93,0,0,0,405.2,300.6Z"/><path class="cls-2" d="M358.64,281.62a.68.68,0,0,1,.1.6,6.64,6.64,0,0,1-1.44,4c-1,1.2-2.82,1.94-5.94.77a3.13,3.13,0,0,1-.72-.47,92.57,92.57,0,0,1-7.12-14.7,95.1,95.1,0,0,1-5.66-22.67,84.16,84.16,0,0,1,.73-23.5l1.28-5.78a53.11,53.11,0,0,1,1.75-5.63,43.09,43.09,0,0,1,2.07-5.52l2.72-5.8c.87-1.52,1.09-3.81,3.4-3.57l4.34-.77c2-.19,4-.48,6-.47a63.2,63.2,0,0,1,11.93.77,84.72,84.72,0,0,1,22.41,6.89,102.66,102.66,0,0,1,19.89,12,98.23,98.23,0,0,1,16.75,16.18c.28.32.72.85.84,1l.36.49.73,1,1.44,1.94c.89,1.35,1.83,2.66,2.67,4.05a61.81,61.81,0,0,1,3.64,8.16A48.39,48.39,0,0,1,443.91,267a23.87,23.87,0,0,1-1.24,8.9c-.58,1.57-1.11,1.91-1.51,1.42a8.54,8.54,0,0,1-1-3.56c-.39-1.77-.75-4-1.38-6.41a71.72,71.72,0,0,0-3.8-10.7,64.87,64.87,0,0,0-6.27-10.39c-.8-1.15-1.52-2.35-2.39-3.47L425,241.14l-.32-.42a11,11,0,0,0-.7-.87l-1.65-2a92.61,92.61,0,0,0-15.29-14c-11.22-8.14-24.27-14.12-37.73-16a57.38,57.38,0,0,0-10-.43,44.6,44.6,0,0,0-4.92.55c-.16,0,0,0,0,0l-.25.55-2.19,4.65c-.64,1.59-1.12,3.23-1.69,4.84-1.27,3.19-1.73,6.6-2.54,9.91a79.06,79.06,0,0,0-.47,20.45,87.07,87.07,0,0,0,5.07,20A84.27,84.27,0,0,0,358.64,281.62Z"/><path class="cls-2" d="M413,220.33a.77.77,0,0,1-.61.16,6.33,6.33,0,0,1-4.1-1.13c-1.24-1-2-2.73-1.17-5.87a2.54,2.54,0,0,1,.39-.74c4.32-3.13,8.75-6,13.28-8.77a169.09,169.09,0,0,1,28-13.79A107.8,107.8,0,0,1,464,185.72l3.92-.8c1.32-.22,2.68-.33,4-.49s2.67-.37,4-.39l5.43-.06,3.79,0c.41-.13.43.28.52.57l.27.9.55,1.79,1.63,5.38a68.75,68.75,0,0,1,2,7.61c.51,2.58,1.23,5.12,1.56,7.74s.74,5.23,1,7.85l.43,7.93-.2,8-.52,5.11a42.8,42.8,0,0,1-.69,4.75,67.21,67.21,0,0,1-2.51,8.44,68.17,68.17,0,0,1-7.41,14.78c-4.93,7.33-7.74,8.45-7.79,7.21s1.6-5,3.31-9.81c-.35.42,2-5.16,3.39-11.16.41-1.47.69-3,.94-4.41s.56-2.74.65-3.91c.25-2.3.43-3.85.43-3.85.3-1.39.36-2.82.52-4.23a51.74,51.74,0,0,0,.41-5.22,100.58,100.58,0,0,0-.42-14.2l-.95-7.07-1.53-7c-.41-2.36-1.31-4.61-1.94-6.91l-.25-.84s0,0,0,0l-1.32,0c-.58,0-1.15,0-1.72,0l-3.46.4a59.85,59.85,0,0,0-6.91,1.2,104,104,0,0,0-13.64,4.11A162.61,162.61,0,0,0,425.62,212C421.31,214.61,417.06,217.39,413,220.33Z"/><path class="cls-2" d="M373.69,198.91c0,.19,0,.26-.17.55a7.3,7.3,0,0,1-2.9,2.92c-1.33.8-3.38.88-5.76-1.65a2.91,2.91,0,0,1-.48-.78,57.9,57.9,0,0,1,.88-16.84,94.11,94.11,0,0,1,14.95-34.26c7-10.25,15.49-19.19,24.49-27.4l9.86-8.63.41-.37c.07,0,.14-.16.21-.13l.19.2.76.81,1.52,1.62,3.05,3.23,3.4,3.61c4.17,4.33,8.08,9,12,13.5l5.75,7,5.48,7.31,2.92,4.29c.85,1.32,1.79,2.57,2.57,4l1.12,2.23a55.58,55.58,0,0,1,2.58,5.72c1.93,4.64,3.9,10.93,3.72,16.49,0,4.68-1.41,7.64-2.45,8.95s-1.67,1.48-1.92.92,0-2,0-3.59a26.05,26.05,0,0,0-.77-6,29.77,29.77,0,0,1-.92-3c-.33-1-.85-2.17-1.33-3.43s-1.27-2.59-1.92-3.94a80.79,80.79,0,0,0-4.42-7.23l-2.2-3.23-2.42-3.61c-.9-1.28-1.24-2-3.35-4.74-3.34-4.63-7-9.05-10.69-13.48s-7.58-8.7-11.62-12.87l-1.71-1.81s0,0,0,0l-4.43,3.89a149.45,149.45,0,0,0-22.45,25.44,84.6,84.6,0,0,0-13.19,30.25A49.28,49.28,0,0,0,373.69,198.91Z"/><path class="cls-3" d="M295.3,438.12s137.86,53.19,140.87,101.35,1.5,70.75,1.5,70.75H397.78l.38-71.12s-43.31-7.36-58.7-23-32.66-38.35-38.53-60.35-5.75-11.83-5.75-11.83Z"/><path class="cls-3" d="M468,510.66l27.25-21.22,21.24-28.74,11.14-25.28,4.66-14.85.28-2.34s-71,12.37-82.3,51.39c1.34,2.6,3.05,2.88,3.05,2.88l13,26.34Z"/><path class="cls-3" d="M330.05,433.36l-19.79-30.2-8.7-21-4.56-21s101.52,37.15,113.57,66.71c-11.19,4.82-18.08,8-18.08,8l-30.08-2.72Z"/><path class="cls-3" d="M331.55,355.84l-12.16-29.9-.63-40.85s81.64,44.54,83,76.08-4.7,6.71-4.7,6.71l-23.44-6.71Z"/><path class="cls-3" d="M444.45,422.57l50.53-8,19.56-27.8,12.94-41.35s-74,12-87.19,58.11C445.89,416.13,444.45,422.57,444.45,422.57Z"/><path class="cls-3" d="M440.29,351.8l46.92-8.4L499.55,323,504.87,281l-.9-7.73s-67.47,29.19-69.61,59.67A100.13,100.13,0,0,1,440.29,351.8Z"/><path class="cls-3" d="M353.79,285.09,343,252.15l1.74-32.53,6.41-15.81s67.74,43.9,55.49,86.3c-1.16,4-9,8.45-9,8.45L383,292.37l-16.37-3.57Z"/><path class="cls-3" d="M450.22,277.82l7.22-1.17,14.28-4.26,6.9-8.89,11-25.57-3.92-34.12-3.62-15.17s-41.75,27.92-41.75,72C440.31,281,450.22,277.82,450.22,277.82Z"/><path class="cls-3" d="M415.6,211.84,430.05,205s15.44-7.7,16.22-7.93,11.17-7.5,11.17-7.5l-2.51-18.23-8.66-18.47-13-12.86-21.64-22.76s27.26,59-3.49,97.84C404.52,219.62,415.6,211.84,415.6,211.84Z"/><path class="cls-2" d="M357.93,613.28c-112.65-25.38-197-126.23-197-246.43s84.39-221.06,197-246.44V106.07c-120.43,25.63-211,132.81-211,260.78S237.5,602,357.93,627.62Z"/><path class="cls-2" d="M465.52,105.34v14.29c114.42,24.05,200.59,125.76,200.59,247.22S579.94,590,465.52,614.05v14.3c122.19-24.27,214.59-132.29,214.59-261.5S587.71,129.61,465.52,105.34Z"/></g><g id="Cereal_Concept" data-name="Cereal Concept"><path class="cls-4" d="M84.5,691a24.12,24.12,0,0,0-10.61-11.87,26.3,26.3,0,0,0-15.64-3,29.83,29.83,0,0,0-15.36,6.36A48.44,48.44,0,0,0,26.2,706.31a55.73,55.73,0,0,0-1.19,30q3.07,14.38,12.57,22.34t20.53,7.82q11-.13,19.34-8.58T87,733.47a3,3,0,0,1,1-1.89,2.42,2.42,0,0,1,2-.62,3,3,0,0,1,2,1,2.57,2.57,0,0,1,.63,2.1q-1.39,17.88-11.24,27.79A32.74,32.74,0,0,1,58.11,772Q45,772.15,34,762.93T19.43,737.38a62.72,62.72,0,0,1,1.53-33A54.86,54.86,0,0,1,39.53,678a34.65,34.65,0,0,1,17.88-7.4,31.31,31.31,0,0,1,19,3.49,28.63,28.63,0,0,1,13.13,14.66A2.41,2.41,0,0,1,89.6,691a3.06,3.06,0,0,1-1.54,1.53,2.33,2.33,0,0,1-2.09,0A2.8,2.8,0,0,1,84.5,691Z"/><path class="cls-4" d="M152.65,739.75v.14l-48-.28q-.28,11,5,17.81a22.37,22.37,0,0,0,13.4,8.45,24,24,0,0,0,16.34-2.52q7.81-4.05,11.87-13.4a2.85,2.85,0,0,1,1.47-1.47,2.4,2.4,0,0,1,2.09,0,3.12,3.12,0,0,1,1.54,1.54,2.39,2.39,0,0,1-.07,2.16q-4.62,11.18-14.39,16.2a29.52,29.52,0,0,1-20,2.93,27.17,27.17,0,0,1-17.17-11q-6.57-8.94-5.59-22.62,1.13-16.06,9.36-26t19.27-10.61q11.44-.69,19.55,8.8T156.28,737a3,3,0,0,1-.77,2,2.37,2.37,0,0,1-1.89.91A2.87,2.87,0,0,1,152.65,739.75ZM105.17,734l45.38.28q-1.4-14.25-7.82-21.16t-14.52-6.49q-8,.55-14.59,7.68T105.17,734Z"/><path class="cls-4" d="M165.63,767.68q0-10.6.14-32t.14-32a2.8,2.8,0,0,1,5.59,0V714.2q11.87-10.34,23.18-13.41a2.76,2.76,0,0,1,2.09.28,2.58,2.58,0,0,1,1.26,1.68,2.72,2.72,0,0,1-.28,2.09,2.58,2.58,0,0,1-1.67,1.26,42.9,42.9,0,0,0-12.36,5.65,89.61,89.61,0,0,0-12.22,10q-.28,42.45-.28,45.94a2.8,2.8,0,0,1-5.59,0Z"/><path class="cls-4" d="M259.89,739.75v.14l-48-.28q-.27,11,5,17.81a22.42,22.42,0,0,0,13.41,8.45,24.06,24.06,0,0,0,16.34-2.52q7.81-4.05,11.87-13.4a2.79,2.79,0,0,1,1.46-1.47,2.42,2.42,0,0,1,2.1,0,3.1,3.1,0,0,1,1.53,1.54,2.36,2.36,0,0,1-.07,2.16q-4.61,11.18-14.38,16.2a29.54,29.54,0,0,1-20,2.93,27.19,27.19,0,0,1-17.18-11q-6.56-8.94-5.58-22.62,1.11-16.06,9.35-26T235,701.07q11.44-.69,19.55,8.8T263.52,737a3,3,0,0,1-.77,2,2.36,2.36,0,0,1-1.88.91A2.94,2.94,0,0,1,259.89,739.75ZM212.41,734l45.39.28q-1.4-14.25-7.82-21.16t-14.53-6.49q-7.95.55-14.59,7.68T212.41,734Z"/><path class="cls-4" d="M272.18,714.34a43.53,43.53,0,0,1,9-9.71,21.3,21.3,0,0,1,11.38-4.26,19.72,19.72,0,0,1,10.26,1.75,17.45,17.45,0,0,1,7.12,6.42,42.55,42.55,0,0,1,4.4,9.08,56.92,56.92,0,0,1,2.52,10.68q.42,3.08.76,6.43t.42,6.77q.07,3.42.07,6.21t-.07,6.43c0,2.42-.09,4.26-.14,5.51s-.14,3-.28,5.24-.21,3.58-.21,4.05a2.38,2.38,0,0,1-.9,1.88,3.08,3.08,0,0,1-2,.77,2.36,2.36,0,0,1-1.88-.91,3,3,0,0,1-.77-2c0-.65,0-1.65.14-3s.14-2.35.14-3a37.84,37.84,0,0,1-9.5,6q-13.68,6.42-23.6.56a20.11,20.11,0,0,1-6.91-7.05A23.77,23.77,0,0,1,269,752.6q-1.26-11.18,5.86-19,8-8.94,22.63-7.26a29.26,29.26,0,0,1,14.24,5.3,22.28,22.28,0,0,0-.42-2.51q-1.68-11.6-6.07-17.67A12.85,12.85,0,0,0,293.13,706a16.62,16.62,0,0,0-8.87,3.35,36.82,36.82,0,0,0-7.61,8.38,2.51,2.51,0,0,1-1.75,1,2.67,2.67,0,0,1-3.21-2.24A2.73,2.73,0,0,1,272.18,714.34Zm40.22,26q-5-7.26-15.5-8.38-11.88-1.39-18,5.45-5.31,5.86-4.33,14.66,1,8.52,7.27,12.29,7.4,4.47,18.57-.7a39.88,39.88,0,0,0,12.15-8.94Q312.67,746.74,312.4,740.31Z"/><path class="cls-4" d="M326.64,767.12q0-15.36.14-46t.14-46a2.8,2.8,0,0,1,5.59,0q0,15.36-.14,46t-.14,46a2.8,2.8,0,0,1-5.59,0Z"/><path class="cls-4" d="M446.17,691a24,24,0,0,0-10.61-11.87,26.29,26.29,0,0,0-15.64-3,29.87,29.87,0,0,0-15.36,6.36,48.44,48.44,0,0,0-16.69,23.81,55.73,55.73,0,0,0-1.18,30q3.06,14.38,12.56,22.34t20.53,7.82q11-.13,19.34-8.58t9.57-24.37a3,3,0,0,1,1-1.89,2.4,2.4,0,0,1,2-.62,3,3,0,0,1,2,1,2.53,2.53,0,0,1,.62,2.1q-1.39,17.88-11.24,27.79A32.7,32.7,0,0,1,419.78,772q-13.12.13-24.09-9.08T381.1,737.38a62.72,62.72,0,0,1,1.54-33A54.79,54.79,0,0,1,401.21,678a34.61,34.61,0,0,1,17.87-7.4,31.33,31.33,0,0,1,19,3.49,28.62,28.62,0,0,1,13.12,14.66,2.38,2.38,0,0,1,.07,2.17,3.08,3.08,0,0,1-1.53,1.53,2.35,2.35,0,0,1-2.1,0A2.8,2.8,0,0,1,446.17,691Z"/><path class="cls-4" d="M497.56,700.93A31.18,31.18,0,0,1,514,715.87a41,41,0,0,1,4.61,22.21,39.89,39.89,0,0,1-2.58,12.57,37.48,37.48,0,0,1-6.22,10.68,24.93,24.93,0,0,1-9.91,7.12,27.35,27.35,0,0,1-13.13,1.75,26.77,26.77,0,0,1-16.06-7,29.92,29.92,0,0,1-8.66-14.1,42.61,42.61,0,0,1-1.11-16.9,44.3,44.3,0,0,1,8-20.67,29.24,29.24,0,0,1,17.45-11.73,2.47,2.47,0,0,1,2.66-1.25,18.21,18.21,0,0,0,2.37.42,22,22,0,0,1,3.63,0A2.59,2.59,0,0,1,497.56,700.93Zm-7,4.05A23.73,23.73,0,0,0,474,714a36,36,0,0,0-7.82,19.2q-1.53,12.15,3.91,21.36T487,764.89q11,1.11,18-6.77t7.82-20a35.43,35.43,0,0,0-5-21Q502,707.64,490.58,705Z"/><path class="cls-4" d="M534.85,721.32q-.42,42.87-.42,46.36a2.8,2.8,0,0,1-5.59,0q0-3.48.42-46.36v-1q.13-9.63.14-17.17a2.8,2.8,0,0,1,5.59,0v7a29.68,29.68,0,0,1,12.43-8.94,28.74,28.74,0,0,1,8.58-1.4,16.77,16.77,0,0,1,8.31,2.38,21.39,21.39,0,0,1,7.26,7q6.15,9.36,7.13,29.05.42,2.24.14,15.71t-.28,13.75a2.8,2.8,0,0,1-5.59,0q0-.27.28-13.54t-.14-15.64q-.84-18.16-6.28-26.26-6.57-9.76-17.46-5.86a24.57,24.57,0,0,0-8.73,5.86A25,25,0,0,0,534.85,721.32Z"/><path class="cls-4" d="M630.5,722.16a23.75,23.75,0,0,0-4.88-7.68,27.07,27.07,0,0,0-7.41-5.73q-9.35-4.74-16.61.84-7.54,5.73-9.78,19.83-2.24,13,1.4,23.32a18.39,18.39,0,0,0,8,10.19,20.61,20.61,0,0,0,12.43,2.8,23,23,0,0,0,12.22-4.61,20.21,20.21,0,0,0,7.33-10.61,2.76,2.76,0,0,1,1.32-1.75,2.44,2.44,0,0,1,2.1-.28,3,3,0,0,1,1.67,1.4,2.12,2.12,0,0,1,.21,2,24.76,24.76,0,0,1-9.21,13.62A29,29,0,0,1,614,771.31a27.1,27.1,0,0,1-15.65-3.63,23.73,23.73,0,0,1-10.47-13q-4-11.58-1.67-26.25,2.79-16.2,12-23.32a18.74,18.74,0,0,1,11.31-4,21.18,21.18,0,0,1,11.17,2.65,32.49,32.49,0,0,1,15.08,16.48,2.68,2.68,0,0,1-.07,2.17,2.77,2.77,0,0,1-1.61,1.46,2.66,2.66,0,0,1-2.16-.07A2.76,2.76,0,0,1,630.5,722.16Z"/><path class="cls-4" d="M698,739.75v.14l-48-.28q-.27,11,5,17.81a22.42,22.42,0,0,0,13.41,8.45,24.06,24.06,0,0,0,16.34-2.52q7.81-4.05,11.86-13.4a2.85,2.85,0,0,1,1.47-1.47,2.42,2.42,0,0,1,2.1,0,3.14,3.14,0,0,1,1.53,1.54,2.36,2.36,0,0,1-.07,2.16q-4.61,11.18-14.38,16.2a29.54,29.54,0,0,1-20,2.93,27.19,27.19,0,0,1-17.18-11q-6.56-8.94-5.58-22.62,1.11-16.06,9.35-26t19.27-10.61q11.46-.69,19.55,8.8T701.58,737a3,3,0,0,1-.77,2,2.36,2.36,0,0,1-1.88.91A2.94,2.94,0,0,1,698,739.75ZM650.47,734l45.39.28q-1.41-14.25-7.82-21.16t-14.53-6.49q-7.95.55-14.59,7.68T650.47,734Z"/><path class="cls-4" d="M711.22,795.33q0-14.24.14-42.87t.14-42.87a2.83,2.83,0,0,1,2.79-2.79,2.85,2.85,0,0,1,2.79,2.79v5.17q5-8.94,11.87-12.43,10.2-5,20.53,2.37,9.35,6.7,14,19.83a42.55,42.55,0,0,1,.84,26.39,27.71,27.71,0,0,1-9.84,15,28.74,28.74,0,0,1-16,6.07,26,26,0,0,1-11.87-2,22.77,22.77,0,0,1-9.64-7.13q-.13,19.41-.14,32.4a2.85,2.85,0,0,1-2.79,2.79,2.83,2.83,0,0,1-2.79-2.79ZM717.08,729q0,7.82-.14,22.06a1.17,1.17,0,0,1,.14.42q2.37,7.83,8.17,11.59a20.67,20.67,0,0,0,12.85,3.35A23.13,23.13,0,0,0,759,749.53a37.91,37.91,0,0,0-.83-23.18q-4-11.6-11.87-17t-14.81-1.95q-8.79,4.32-14.1,20.94A5.64,5.64,0,0,1,717.08,729Z"/><path class="cls-4" d="M792.21,700.79q0,3.63-.35,28.63t-.35,38.12a2.68,2.68,0,0,1-.84,2,2.72,2.72,0,0,1-3.91,0,2.71,2.71,0,0,1-.83-2q0-13.12.35-38.12t.34-28.77c-2.6,0-5.26,0-8-.14a2.39,2.39,0,0,1-1.89-.9,3.08,3.08,0,0,1-.77-2,2.36,2.36,0,0,1,.91-1.88,3,3,0,0,1,2-.77l7.82.28V681.66a2.8,2.8,0,0,1,5.59,0v13.55l7.4-.28a3,3,0,0,1,2,.77,2.38,2.38,0,0,1,.9,1.88,3.07,3.07,0,0,1-.76,2,2.41,2.41,0,0,1-1.89.9Z"/><path class="cls-4" d="M810.64,764.05a2.7,2.7,0,1,1-1.95-.84A2.68,2.68,0,0,1,810.64,764.05Z"/></g></svg>